<?xml version="1.0" encoding="UTF-8"?>
<svg version="1.1" xmlns="http://www.w3.org/2000/svg" width="512" height="512">
<path d="M0 0 C0.81355957 0.19867676 1.62711914 0.39735352 2.46533203 0.60205078 C31.71811071 7.84606108 57.35205064 22.09038452 79 43 C79.91394531 43.85078125 80.82789063 44.7015625 81.76953125 45.578125 C92.39778131 55.73502206 100.71272788 67.40643962 108.125 80.0625 C108.58648437 80.84753906 109.04796875 81.63257812 109.5234375 82.44140625 C109.95140625 83.19421875 110.379375 83.94703125 110.8203125 84.72265625 C111.19430176 85.38015869 111.56829102 86.03766113 111.95361328 86.71508789 C113.33059776 89.72190025 114.14767689 92.81017232 115 96 C116.92863892 95.97643433 116.92863892 95.97643433 118.89624023 95.95239258 C123.69891006 95.89780098 128.50155283 95.86354406 133.30444336 95.83520508 C135.37708154 95.82018479 137.44968829 95.79976253 139.5222168 95.77368164 C142.51358836 95.73699976 145.5045371 95.72020565 148.49609375 95.70703125 C149.41208847 95.69154739 150.32808319 95.67606354 151.27183533 95.66011047 C161.08952398 95.65758317 169.51265567 98.54198926 177 105 C186.23925566 115.50738879 186.4565373 127.74190152 186.3984375 141.03125 C186.40046303 142.67452117 186.40337844 144.31779145 186.40713501 145.96105957 C186.41153586 149.39030592 186.40520009 152.81931642 186.39111328 156.24853516 C186.37402264 160.61936472 186.38387593 164.98964141 186.40183067 169.36045074 C186.41272944 172.74932944 186.40919441 176.13807948 186.4014473 179.52696228 C186.39946208 181.13752815 186.40184477 182.74810613 186.40888596 184.35865784 C186.45163811 196.88247659 185.64540569 208.18934398 177 218 C168.59544868 225.12830464 160.16971511 227.47021004 149.375 227.29296875 C148.38749756 227.28872391 147.39999512 227.28447906 146.38256836 227.28010559 C143.25475823 227.26342646 140.1276126 227.22579435 137 227.1875 C134.86849894 227.17243925 132.7369877 227.15875329 130.60546875 227.14648438 C125.40342236 227.1135584 120.20175867 227.06346767 115 227 C114.81221481 227.59797897 114.62442963 228.19595795 114.43095398 228.8120575 C113.10513174 232.92896095 111.8397667 236.7766418 109.51953125 240.45703125 C109.07802734 241.17697266 108.63652344 241.89691406 108.18164062 242.63867188 C107.72982422 243.35603516 107.27800781 244.07339844 106.8125 244.8125 C105.89423448 246.27227397 104.98372579 247.73696371 104.08203125 249.20703125 C103.48225464 250.15799683 103.48225464 250.15799683 102.87036133 251.12817383 C101.71891401 253.26046521 101.71891401 253.26046521 102 257 C104.54934861 258.94340738 107.00476001 260.55970547 109.75 262.1875 C110.58329834 262.69796875 111.41659668 263.2084375 112.27514648 263.734375 C115.1742935 265.5051021 118.08641921 267.25313162 121 269 C125.68984691 271.82945686 130.37669252 274.66385958 135.0625 277.5 C135.66454254 277.86403931 136.26658508 278.22807861 136.88687134 278.60314941 C155.72310823 290.00112795 173.91527107 301.85816898 190 317 C190.68578125 317.62132812 191.3715625 318.24265625 192.078125 318.8828125 C205.80531021 331.79933717 216.40385871 350.63563355 217.09868622 369.70898438 C217.14419127 373.0426178 217.15799777 376.37503839 217.16113281 379.70898438 C217.16609772 380.97648026 217.17106262 382.24397614 217.17617798 383.54988098 C217.18922734 387.01056942 217.19573145 390.47123854 217.20018864 393.93194771 C217.20312956 396.09710572 217.20723609 398.26225856 217.21169281 400.42741394 C217.22534384 407.21106073 217.23502397 413.99469556 217.2388947 420.77835512 C217.24337925 428.59286092 217.26095546 436.40719215 217.2898953 444.22164488 C217.31153247 450.27535211 217.32159995 456.32901027 217.32293582 462.38275576 C217.32398176 465.99296587 217.32984526 469.60301134 217.34775543 473.21318054 C217.36734374 477.23923312 217.36293909 481.26492062 217.35644531 485.29101562 C217.3656601 486.47979813 217.37487488 487.66858063 217.3843689 488.89338684 C217.3476119 496.16512416 217.20643225 501.70654092 211.90379804 507.15309566 C208.16434526 509.53150196 205.0406619 509.55667542 200.74900913 509.50615788 C199.91773438 509.51227123 199.08645964 509.51838459 198.22999474 509.52468321 C195.43198046 509.5403394 192.63482602 509.52739444 189.83680725 509.5146637 C187.81561078 509.51998646 185.79441828 509.52705058 183.77323335 509.53571075 C178.20925806 509.55440075 172.64554778 509.5480112 167.08156121 509.53755772 C161.08486277 509.53058373 155.08821977 509.54654994 149.09153748 509.55955505 C138.01952925 509.5799769 126.94759161 509.58200583 115.87557402 509.57433859 C105.64705944 509.56727 95.41857631 509.5672043 85.19006157 509.57420158 C83.81883205 509.57511291 82.44760254 509.57602367 81.07637302 509.57693387 C79.01013744 509.57831698 76.94390186 509.57970807 74.8776663 509.58112001 C55.66377998 509.59410382 36.44990422 509.59921131 17.23601627 509.5875864 C16.51149614 509.58714843 15.786976 509.58671046 15.04050071 509.58625922 C9.15661881 509.58265227 3.27273707 509.57881756 -2.61114467 509.57496829 C-25.56461907 509.56011977 -48.51797449 509.56890028 -71.47143555 509.59692383 C-97.2518649 509.62833849 -123.03222382 509.64332598 -148.81267267 509.63312382 C-151.56053037 509.63208701 -154.30838808 509.63109979 -157.0562458 509.6301403 C-157.7328525 509.62989142 -158.4094592 509.62964253 -159.10656912 509.6293861 C-169.32855236 509.62594335 -179.55047347 509.63526238 -189.77244377 509.65091133 C-201.39492328 509.66866327 -213.01727752 509.66836514 -224.63975542 509.64555968 C-230.57263824 509.63438727 -236.50523576 509.63132294 -242.43810654 509.64986038 C-247.86570158 509.66660121 -253.29276107 509.66040087 -258.72032101 509.63564359 C-260.68728848 509.63073884 -262.65429863 509.63433395 -264.62123059 509.64713103 C-267.28919415 509.66324096 -269.95528965 509.64873508 -272.62316799 509.62641239 C-273.39210594 509.63840407 -274.16104389 509.65039575 -274.95328298 509.66275081 C-280.74750116 509.56332831 -283.09685044 507.99097045 -287 504 C-290.013279 498.38475957 -289.29527003 491.66975224 -289.29052734 485.45556641 C-289.29724457 484.19291962 -289.30396179 482.93027283 -289.31088257 481.62936401 C-289.3285051 478.17419023 -289.33323673 474.71911562 -289.33451414 471.26390123 C-289.33593995 469.09783314 -289.34021797 466.93178989 -289.34550858 464.765728 C-289.36400591 457.18706426 -289.37218074 449.60847071 -289.37060547 442.02978516 C-289.36940846 435.00322861 -289.39042435 427.97698142 -289.4220928 420.95050299 C-289.44841148 414.89156888 -289.45896609 408.83273469 -289.45769465 402.77374399 C-289.45718898 399.16710238 -289.46264773 395.56073503 -289.48405075 391.95415115 C-289.65252222 361.40798222 -284.31495883 339.25659416 -262.25 316.875 C-244.4912928 299.34217005 -222.3982275 286.89895386 -201.23876953 273.97949219 C-196.19266706 270.89538252 -191.15710652 267.79437905 -186.125 264.6875 C-184.82405396 263.88807983 -184.82405396 263.88807983 -183.49682617 263.07250977 C-182.2957019 262.33085571 -182.2957019 262.33085571 -181.0703125 261.57421875 C-180.37695801 261.14713623 -179.68360352 260.72005371 -178.96923828 260.2800293 C-176.90645439 258.93919419 -174.95156432 257.49710913 -173 256 C-174.28744289 252.55669757 -175.79358991 249.54566764 -177.75 246.4375 C-187 231.28663793 -187 231.28663793 -187 227 C-188.96622314 227.0314209 -188.96622314 227.0314209 -190.97216797 227.06347656 C-195.87358512 227.13632587 -200.7749552 227.18196229 -205.67675781 227.21972656 C-207.79109772 227.23974016 -209.90538299 227.26695972 -212.01953125 227.30175781 C-215.07305448 227.35072941 -218.12584078 227.37307182 -221.1796875 227.390625 C-222.11239471 227.41127014 -223.04510193 227.43191528 -224.006073 227.45318604 C-233.11158425 227.45624209 -241.05137159 224.54232156 -248.1796875 218.828125 C-255.73980025 211.23556541 -258.23719361 201.8100318 -258.2746582 191.36572266 C-258.2823246 190.29078804 -258.2823246 190.29078804 -258.29014587 189.19413757 C-258.30392227 186.85069166 -258.30309414 184.50754383 -258.30078125 182.1640625 C-258.3046749 180.51793308 -258.30901094 178.87180465 -258.31376648 177.22567749 C-258.32120313 173.78453304 -258.32095615 170.34349123 -258.31567383 166.90234375 C-258.30988427 162.51578944 -258.32681011 158.12965807 -258.3500185 153.7431736 C-258.36482687 150.34572945 -258.3656179 146.94838548 -258.36250877 143.55091476 C-258.36301848 141.93475889 -258.36818951 140.31859689 -258.37832069 138.70247269 C-258.44931948 125.79374226 -257.60809702 115.52588827 -248.75 105.4375 C-240.07404875 97.7474523 -232.0712345 95.67787449 -220.69140625 95.8046875 C-219.24132423 95.80893234 -219.24132423 95.80893234 -217.76194763 95.81326294 C-214.69533548 95.82439593 -211.62902285 95.84948776 -208.5625 95.875 C-206.47461361 95.88503869 -204.38672262 95.89416299 -202.29882812 95.90234375 C-197.19910456 95.92431273 -192.09960295 95.95879493 -187 96 C-186.80428406 95.39236816 -186.60856812 94.78473633 -186.40692139 94.15869141 C-186.14469788 93.35608887 -185.88247437 92.55348633 -185.61230469 91.7265625 C-185.35471375 90.93330566 -185.0971228 90.14004883 -184.83172607 89.32275391 C-181.26172293 79.35283832 -174.50157706 68.92246368 -166.625 61.875 C-162.59570871 60.5319029 -159.07318479 60.91332456 -155 62 C-151.99314022 63.79132072 -150.47342666 65.24682123 -148.625 68.1875 C-147.331897 74.00646348 -147.83279714 77.98784376 -150.796875 83.09765625 C-151.93976005 84.84317666 -153.10928906 86.56903873 -154.27978516 88.29614258 C-173.43012991 116.81865252 -179.07102732 153.60259614 -173.03125 187.06640625 C-168.04299502 212.0126298 -157.33023816 233.55771252 -141 253 C-140.37480469 253.76054687 -139.74960938 254.52109375 -139.10546875 255.3046875 C-133.99360615 261.32231801 -128.24539785 266.19121571 -122 271 C-121.14664063 271.66902344 -120.29328125 272.33804687 -119.4140625 273.02734375 C-91.53120144 294.16975341 -54.85867382 304.57924874 -20 300 C8.59050703 295.96678623 35.74894176 284.97992761 56.9375 264.94140625 C59 263 59 263 62.0625 260.625 C86.51034073 238.77799339 100.29045394 204.05966541 103 172 C105.03596115 133.96132811 93.43694546 99.17623185 69 70 C68.41347656 69.28972656 67.82695312 68.57945313 67.22265625 67.84765625 C45.6651453 42.37948572 12.68726419 27.16129378 -20 23 C-54.62096966 21.19708354 -85.76551297 27.0904444 -114.86328125 46.65234375 C-118.90192733 49.19957026 -122.30826296 49.39760483 -127 49 C-130.64450372 47.17774814 -132.59278629 45.57798075 -134.9375 42.25 C-136.22974327 38.29725588 -136.48423733 34.88185148 -135 31 C-131.27344427 25.62280353 -126.97449914 22.78082133 -121.3125 19.625 C-120.47380371 19.15167236 -119.63510742 18.67834473 -118.77099609 18.19067383 C-103.78333416 9.8730978 -88.65068374 4.06620975 -72 0 C-71.30632324 -0.17934082 -70.61264648 -0.35868164 -69.89794922 -0.54345703 C-48.57475111 -5.88088196 -21.23819828 -5.49085126 0 0 Z M-232 124 C-233.13231308 127.39693923 -233.14081814 130.01297042 -233.16113281 133.59521484 C-233.16609772 134.26061783 -233.17106262 134.92602081 -233.17617798 135.61158752 C-233.19077477 137.8113814 -233.19759727 140.01110317 -233.203125 142.2109375 C-233.20887831 143.74166872 -233.21463602 145.27239992 -233.22039795 146.8031311 C-233.23090074 150.01263769 -233.23674819 153.22211928 -233.24023438 156.43164062 C-233.24571894 160.53968257 -233.26974894 164.64739304 -233.29820633 168.75533104 C-233.31685016 171.91752074 -233.32203922 175.07963086 -233.32357025 178.24187088 C-233.32659316 179.75610797 -233.33460953 181.27034378 -233.34775543 182.78452682 C-233.36485381 184.90527166 -233.36292704 187.02520987 -233.35644531 189.14599609 C-233.36009094 190.35162201 -233.36373657 191.55724792 -233.36749268 192.79940796 C-232.96423025 196.31152836 -232.10936389 198.19125012 -230 201 C-227.04189524 202.47905238 -224.0452845 202.12190903 -220.8046875 202.09765625 C-220.09724396 202.0962413 -219.38980042 202.09482635 -218.66091919 202.09336853 C-216.39890331 202.087766 -214.13698602 202.07521318 -211.875 202.0625 C-210.34244935 202.05748532 -208.80989714 202.05292236 -207.27734375 202.04882812 C-203.51819112 202.03779577 -199.75911228 202.02052952 -196 202 C-196.20496094 200.81664062 -196.40992188 199.63328125 -196.62109375 198.4140625 C-196.89340779 196.81773879 -197.16553303 195.22138287 -197.4375 193.625 C-197.57220703 192.85027344 -197.70691406 192.07554687 -197.84570312 191.27734375 C-201.48757662 169.78140751 -200.61798382 148.43309061 -197 127 C-196.66664254 125.00000402 -196.3333042 123.00000486 -196 121 C-200.48401485 120.92572351 -204.96770174 120.87133889 -209.45214844 120.83520508 C-210.9769515 120.82013849 -212.50171136 120.79968124 -214.02636719 120.77368164 C-216.22081166 120.73720294 -218.41468216 120.72025286 -220.609375 120.70703125 C-221.92905273 120.6913208 -223.24873047 120.67561035 -224.60839844 120.65942383 C-228.1689352 121.01696405 -229.55092281 121.44595169 -232 124 Z M124 121 C124.20496094 122.18335937 124.40992188 123.36671875 124.62109375 124.5859375 C124.89340779 126.18226121 125.16553303 127.77861713 125.4375 129.375 C125.57220703 130.14972656 125.70691406 130.92445313 125.84570312 131.72265625 C129.28418779 152.01810233 128.95481665 172.42381713 125.38891602 192.67431641 C124.87035994 195.77523617 124.43718186 198.88669953 124 202 C128.48401485 202.07427649 132.96770174 202.12866111 137.45214844 202.16479492 C138.9769515 202.17986151 140.50171136 202.20031876 142.02636719 202.22631836 C144.22081166 202.26279706 146.41468216 202.27974714 148.609375 202.29296875 C149.92905273 202.3086792 151.24873047 202.32438965 152.60839844 202.34057617 C156.1689352 201.98303595 157.55092281 201.55404831 160 199 C161.13231308 195.60306077 161.14081814 192.98702958 161.16113281 189.40478516 C161.16858017 188.40668068 161.16858017 188.40668068 161.17617798 187.38841248 C161.19077477 185.1886186 161.19759727 182.98889683 161.203125 180.7890625 C161.20887831 179.25833128 161.21463602 177.72760008 161.22039795 176.1968689 C161.23090074 172.98736231 161.23674819 169.77788072 161.24023438 166.56835938 C161.24571894 162.46031743 161.26974894 158.35260696 161.29820633 154.24466896 C161.31685016 151.08247926 161.32203922 147.92036914 161.32357025 144.75812912 C161.32659316 143.24389203 161.33460953 141.72965622 161.34775543 140.21547318 C161.36485381 138.09472834 161.36292704 135.97479013 161.35644531 133.85400391 C161.36009094 132.64837799 161.36373657 131.44275208 161.36749268 130.20059204 C160.96423025 126.68847164 160.10936389 124.80874988 158 122 C155.04189524 120.52094762 152.0452845 120.87809097 148.8046875 120.90234375 C148.09724396 120.9037587 147.38980042 120.90517365 146.66091919 120.90663147 C144.39890331 120.912234 142.13698602 120.92478682 139.875 120.9375 C138.34244935 120.94251468 136.80989714 120.94707764 135.27734375 120.95117188 C131.51819112 120.96220423 127.75911228 120.97947048 124 121 Z M-156 275 C-156.97453125 275.66902344 -157.9490625 276.33804687 -158.953125 277.02734375 C-168.44245759 283.47647144 -178.11509489 289.57533532 -187.9375 295.5 C-189.14757308 296.23066194 -190.35761546 296.96137474 -191.56762695 297.69213867 C-192.16227249 298.05123825 -192.75691803 298.41033783 -193.36958313 298.78031921 C-193.9591832 299.13640762 -194.54878326 299.49249603 -195.15625 299.859375 C-195.7402507 300.21203934 -196.3242514 300.56470367 -196.9259491 300.92805481 C-202.28518479 304.16700751 -207.62514476 307.43472713 -212.9375 310.75 C-213.69345459 311.21470703 -214.44940918 311.67941406 -215.22827148 312.15820312 C-219.35083225 314.7473753 -222.70259945 317.41222171 -226 321 C-225.42894531 321.72058594 -224.85789062 322.44117188 -224.26953125 323.18359375 C-211.34093458 340.07667102 -202.00162741 359.64409485 -196 380 C-195.76877441 380.77472656 -195.53754883 381.54945313 -195.29931641 382.34765625 C-185.42339372 416.03123027 -184.84177681 448.64537392 -184 484 C-86.32 484 11.36 484 112 484 C112.33 470.8 112.66 457.6 113 444 C116.85714286 437.57142857 116.85714286 437.57142857 120 436 C124.33669978 435.40604299 127.89189383 435.52846546 131.9375 437.25 C134.59934371 439.50853406 135.80283204 441.55735715 136.2784729 445.03753662 C136.2984584 446.11675385 136.2984584 446.11675385 136.31884766 447.21777344 C136.33890869 448.04970215 136.35896973 448.88163086 136.37963867 449.73876953 C136.39099854 450.60356934 136.4023584 451.46836914 136.4140625 452.359375 C136.43170654 453.16133301 136.44935059 453.96329102 136.4675293 454.78955078 C136.53044401 457.77616579 136.57673585 460.76311232 136.625 463.75 C136.74875 470.4325 136.8725 477.115 137 484 C155.15 484 173.3 484 192 484 C192.12029523 462.88843329 192.12029523 462.88843329 192.20101547 441.77681828 C192.22312281 434.22244691 192.25112444 426.66825352 192.30175781 419.11401367 C192.34615176 412.4874586 192.36917717 405.86104502 192.37950897 399.23433495 C192.38686644 396.71353312 192.40123338 394.19274114 192.42292023 391.67202187 C192.6092492 369.10506825 190.04113758 353.85540852 174 337 C154.51254266 355.4653879 146.00396247 385.69179296 140.82177734 411.11181641 C139.68598174 415.10363519 138.40344373 418.18132449 134.75 420.3125 C129.82620097 421.54344976 126.35713177 421.61455024 121.6875 419.5 C118.3046115 416.35312698 117.44514534 413.4774473 117 409 C117.2980659 405.34733787 118.08027468 401.87107324 118.9375 398.3125 C119.16985352 397.30791748 119.40220703 396.30333496 119.64160156 395.26831055 C125.33948431 371.47050212 134.38262339 349.3459627 148 329 C148.64839844 328.01386719 149.29679687 327.02773438 149.96484375 326.01171875 C151.29604257 323.99769324 152.64210605 321.99600316 154 320 C146.7083621 314.49311231 139.25063672 309.55686916 131.40231323 304.87322998 C128.95170676 303.41066744 126.50797207 301.93678839 124.06376648 300.46356201 C122.82443523 299.71664675 121.58478239 298.97026481 120.34480286 298.22442627 C114.68274883 294.81701188 109.05346427 291.35785643 103.4375 287.875 C102.16410767 287.08536865 102.16410767 287.08536865 100.86499023 286.27978516 C94.88262547 282.56255281 88.9215149 278.81362201 83 275 C81.85337891 276.21623047 81.85337891 276.21623047 80.68359375 277.45703125 C68.37311094 290.28004485 54.76150114 299.8496707 39 308 C38.08033447 308.47928955 38.08033447 308.47928955 37.14208984 308.96826172 C17.84520803 318.88363505 -4.27241892 325.0642018 -26.0234375 325.203125 C-26.76263931 325.21018463 -27.50184113 325.21724426 -28.26344299 325.22451782 C-58.70966883 325.44939893 -58.70966883 325.44939893 -72 322 C-72.82419434 321.79600586 -73.64838867 321.59201172 -74.49755859 321.38183594 C-86.52398076 318.36038703 -97.86979611 314.46228585 -109 309 C-109.62567871 308.69868164 -110.25135742 308.39736328 -110.89599609 308.08691406 C-124.38866493 301.522913 -136.30702989 292.94754762 -147.14453125 282.58203125 C-148.84725717 280.78372993 -148.84725717 280.78372993 -151 281 C-151.268125 280.38125 -151.53625 279.7625 -151.8125 279.125 C-152.95556848 276.7004767 -152.95556848 276.7004767 -156 275 Z M-246 337 C-256.29536665 347.13194813 -263.91098679 359.5139042 -264.24050903 374.32788086 C-264.24625604 376.373532 -264.2411053 378.41923281 -264.22705078 380.46484375 C-264.22734283 381.58767258 -264.22763489 382.7105014 -264.22793579 383.86735535 C-264.22654884 387.55748374 -264.21101734 391.24740712 -264.1953125 394.9375 C-264.19158012 397.50439341 -264.18873421 400.07128825 -264.18673706 402.63818359 C-264.17989594 408.69054445 -264.16415285 414.74282141 -264.14403808 420.79515076 C-264.1194225 428.36732606 -264.10852744 435.93951338 -264.09765625 443.51171875 C-264.07822004 457.00786918 -264.03814863 470.5038607 -264 484 C-245.85 484 -227.7 484 -209 484 C-208.38250742 450.35003657 -208.38250742 450.35003657 -212 417 C-212.25740967 415.55536377 -212.25740967 415.55536377 -212.52001953 414.08154297 C-217.42233654 387.51965914 -225.93172791 356.30706177 -246 337 Z " fill="#000000" transform="translate(292,3)"/>
<path d="M0 0 C25.54781979 19.18075113 42.555933 45.77445802 47.55834961 77.46801758 C51.74755502 108.54997641 44.41243748 139.78522497 25.40234375 164.87109375 C21.88180499 169.22194825 18.16322096 173.35200581 14.33203125 177.4296875 C13.81640625 178.02136719 13.30078125 178.61304688 12.76953125 179.22265625 C-0.15642152 193.39407842 -19.6126618 202.26291727 -37.66796875 207.4296875 C-39.26511719 207.91115234 -39.26511719 207.91115234 -40.89453125 208.40234375 C-69.72250727 215.65997237 -102.19974148 210.11656142 -127.60546875 195.0546875 C-154.86961268 178.20393188 -173.60487912 152.21510938 -181.21142578 121.21484375 C-187.97161351 91.08602298 -182.6624228 59.73436618 -166.66796875 33.4296875 C-148.63436841 5.79007034 -122.63426138 -11.69430233 -90.82348633 -19.12475586 C-59.72271397 -25.55344649 -25.78890454 -18.57132019 0 0 Z M-136.21484375 34.59375 C-152.49363966 53.41286756 -160.08803826 77.37566093 -158.86328125 102.06982422 C-157.01530902 124.39794868 -146.98355643 143.38478612 -131.66796875 159.4296875 C-131.12914062 160.04328125 -130.5903125 160.656875 -130.03515625 161.2890625 C-122.09549291 169.98678415 -110.55763914 176.24135274 -99.66796875 180.4296875 C-98.72179687 180.79835937 -97.775625 181.16703125 -96.80078125 181.546875 C-73.59811033 189.63533789 -48.99616373 187.07487206 -27 176.76171875 C-19.86542437 173.10660791 -13.62972078 168.77633813 -7.66796875 163.4296875 C-6.77335938 162.62917969 -5.87875 161.82867187 -4.95703125 161.00390625 C0.37690815 155.96131648 4.79321458 150.74822297 8.89453125 144.6796875 C9.3121875 144.06601318 9.72984375 143.45233887 10.16015625 142.82006836 C12.77644056 138.78753547 14.22245562 135.10789826 15.33203125 130.4296875 C14.33945312 130.93757813 13.346875 131.44546875 12.32421875 131.96875 C-23.62659989 150.24051849 -23.62659989 150.24051849 -34.7890625 148.08203125 C-38.33173301 146.85203962 -39.68912943 145.62136382 -41.66796875 142.4296875 C-42.35687017 138.637883 -42.58513374 135.18466887 -41.66796875 131.4296875 C-37.6096399 125.6992575 -31.59947351 124.2579867 -25.16796875 122.0546875 C-6.25222061 115.25518565 9.04235582 105.71936293 23.33203125 91.4296875 C23.9963493 78.43119771 19.26649782 64.79992597 13.33203125 53.4296875 C12.84089844 52.46546875 12.34976563 51.50125 11.84375 50.5078125 C7.40299406 42.32579917 1.85340571 35.96922735 -4.66796875 29.4296875 C-5.44914063 28.6253125 -6.2303125 27.8209375 -7.03515625 26.9921875 C-25.39169074 9.19191163 -49.42689959 3.7438607 -74.21484375 4.11328125 C-98.46517029 4.95618818 -119.58004395 17.59277536 -136.21484375 34.59375 Z " fill="#000000" transform="translate(323.66796875,69.5703125)"/>
<path d="M0 0 C0.90792801 -0.00861557 1.81585602 -0.01723114 2.751297 -0.02610779 C5.74733125 -0.04877795 8.74243089 -0.04202666 11.73852539 -0.03295898 C13.82451149 -0.03819429 15.91049522 -0.04447043 17.99647522 -0.05174255 C22.36690414 -0.06214887 26.73700751 -0.05758212 31.10742188 -0.04296875 C36.70423511 -0.02578533 42.30002131 -0.04927001 47.89671993 -0.08445835 C52.20421636 -0.10643448 56.51146717 -0.10499022 60.81900215 -0.09669304 C62.88224984 -0.09587355 64.94551557 -0.10273639 67.00871086 -0.11746407 C69.89576936 -0.13491257 72.78098394 -0.12036451 75.66796875 -0.09765625 C76.51751129 -0.10934845 77.36705383 -0.12104065 78.24234009 -0.13308716 C82.43104133 -0.06615934 85.0908909 0.26558989 88.40724182 2.94618225 C91.69201328 6.35729185 92.6144224 8.87526353 92.89868164 13.53344727 C92.0062759 18.59041311 89.80998636 21.27402667 85.89868164 24.53344727 C81.83121336 25.85810653 77.71259408 25.68864368 73.47753906 25.69458008 C72.20605766 25.70202744 72.20605766 25.70202744 70.90888977 25.70962524 C68.10730169 25.72421866 65.30577023 25.7310442 62.50415039 25.73657227 C60.55365498 25.74232606 58.60315958 25.74808377 56.65266418 25.75384521 C52.56303647 25.76434719 48.47342836 25.77019511 44.38378906 25.77368164 C39.15163811 25.77916448 33.91974764 25.80319147 28.68767834 25.83165359 C24.65813955 25.8503065 20.62866317 25.85548699 16.59908485 25.85701752 C14.67063282 25.8600386 12.74218174 25.86804873 10.8137722 25.8812027 C8.11165092 25.89831855 5.41016179 25.89636946 2.70800781 25.88989258 C1.91659393 25.89910736 1.12518005 25.90832214 0.30978394 25.91781616 C-5.53229053 25.87410267 -10.54586941 24.91853295 -14.97631836 20.78344727 C-17.26363004 16.2088239 -17.46338978 12.72023692 -15.97631836 7.84594727 C-11.90717156 0.65712126 -7.67950592 -0.05885096 0 0 Z " fill="#000000" transform="translate(218.101318359375,364.466552734375)"/>
<path d="M0 0 C0.90792801 -0.00861557 1.81585602 -0.01723114 2.751297 -0.02610779 C5.74733125 -0.04877795 8.74243089 -0.04202666 11.73852539 -0.03295898 C13.82451149 -0.03819429 15.91049522 -0.04447043 17.99647522 -0.05174255 C22.36690414 -0.06214887 26.73700751 -0.05758212 31.10742188 -0.04296875 C36.70423511 -0.02578533 42.30002131 -0.04927001 47.89671993 -0.08445835 C52.20421636 -0.10643448 56.51146717 -0.10499022 60.81900215 -0.09669304 C62.88224984 -0.09587355 64.94551557 -0.10273639 67.00871086 -0.11746407 C69.89576936 -0.13491257 72.78098394 -0.12036451 75.66796875 -0.09765625 C76.51751129 -0.10934845 77.36705383 -0.12104065 78.24234009 -0.13308716 C82.43201817 -0.06614373 85.08957513 0.26499185 88.40504456 2.94837952 C91.68197399 6.34545949 92.77392826 8.84628441 92.89868164 13.53344727 C91.40785484 18.7951889 89.52929633 21.65835433 84.89868164 24.53344727 C81.8629148 25.11381345 78.88099511 25.09052557 75.79736328 25.06689453 C74.88943527 25.0755101 73.98150726 25.08412567 73.04606628 25.09300232 C70.05003203 25.11567248 67.05493239 25.10892119 64.05883789 25.09985352 C61.97285179 25.10508882 59.88686806 25.11136496 57.80088806 25.11863708 C53.43045914 25.1290434 49.06035577 25.12447666 44.68994141 25.10986328 C39.09312817 25.09267986 33.49734197 25.11616454 27.90064335 25.15135288 C23.59314692 25.17332901 19.28589611 25.17188475 14.97836113 25.16358757 C12.91511344 25.16276808 10.85184771 25.16963093 8.78865242 25.1843586 C5.90159392 25.2018071 3.01637934 25.18725904 0.12939453 25.16455078 C-0.72014801 25.17624298 -1.56969055 25.18793518 -2.44497681 25.19998169 C-6.63465489 25.13303826 -9.29221185 24.80190268 -12.60768127 22.11851501 C-15.88461071 18.72143504 -16.97656498 16.22061012 -17.10131836 11.53344727 C-14.37569611 1.91360402 -9.15210116 -0.07013602 0 0 Z " fill="#000000" transform="translate(218.101318359375,424.466552734375)"/>
</svg>
