<?xml version="1.0" encoding="UTF-8"?>
<svg version="1.1" xmlns="http://www.w3.org/2000/svg" width="512" height="512">
<path d="M0 0 C6.34354549 6.84352937 7.88451103 13.70872437 7.609375 22.92578125 C5.61767624 43.8849368 -6.38338975 62.26216987 -17.5625 79.49414062 C-18.87455062 81.55313411 -18.87455062 81.55313411 -19.7265625 84.4609375 C-18.84336956 87.61114111 -18.84336956 87.61114111 -17.7265625 90.4609375 C-16.86331863 90.44761383 -16.86331863 90.44761383 -15.9826355 90.434021 C-9.98038691 90.34536849 -3.97832502 90.28512913 2.02441406 90.24121094 C4.26309771 90.22112434 6.50172908 90.1938497 8.74023438 90.15917969 C11.96237099 90.11053286 15.18381251 90.08793876 18.40625 90.0703125 C19.40334991 90.04966736 20.40044983 90.02902222 21.42776489 90.00775146 C27.21299768 90.00589307 30.81801134 90.38716323 35.2734375 94.4609375 C38.98534574 98.88762325 39.76193074 101.88408275 39.6640625 107.609375 C39.65840271 108.26676666 39.65274292 108.92415833 39.64691162 109.60147095 C39.62470025 111.68039941 39.5745417 113.75753913 39.5234375 115.8359375 C39.50335239 117.25388118 39.48510515 118.67185215 39.46875 120.08984375 C39.42488817 123.54744627 39.35597187 127.00401701 39.2734375 130.4609375 C40.83502809 130.94305964 42.39775678 131.42149623 43.9609375 131.8984375 C44.83105469 132.16527344 45.70117188 132.43210938 46.59765625 132.70703125 C47.48066406 132.95582031 48.36367188 133.20460937 49.2734375 133.4609375 C50.11962646 133.73591064 50.96581543 134.01088379 51.83764648 134.29418945 C54.37736375 134.72397971 54.37736375 134.72397971 56.42993164 132.95385742 C57.48361938 131.83394409 57.48361938 131.83394409 58.55859375 130.69140625 C59.33654297 129.88509766 60.11449219 129.07878906 60.91601562 128.24804688 C62.11387695 126.96124023 62.11387695 126.96124023 63.3359375 125.6484375 C64.92650448 123.97099618 66.52139318 122.29763954 68.12109375 120.62890625 C68.82242432 119.87891357 69.52375488 119.1289209 70.24633789 118.35620117 C73.85521014 114.98203819 76.75734936 114.15444014 81.6484375 114.0859375 C82.56367188 114.05757813 83.47890625 114.02921875 84.421875 114 C90.20555687 114.93489652 94.30734314 119.24373308 98.32910156 123.2578125 C98.79493652 123.72014282 99.26077148 124.18247314 99.74072266 124.65881348 C101.26186712 126.17123557 102.77567233 127.69075922 104.2890625 129.2109375 C105.35157597 130.27210205 106.41438604 131.3329697 107.47747803 132.39355469 C109.69625742 134.60939608 111.91140566 136.8287877 114.12402344 139.05078125 C116.95740628 141.89558573 119.79971175 144.73127905 122.64477921 147.56439209 C124.83771053 149.7500928 127.02585173 151.940539 129.21257782 154.13244629 C130.25888117 155.18008136 131.30666552 156.22623952 132.35596466 157.27087402 C133.82065918 158.73048054 135.27877525 160.19636045 136.73535156 161.6640625 C137.56552795 162.49583008 138.39570435 163.32759766 139.2510376 164.18457031 C142.62513841 167.9823812 143.57767498 170.78349323 143.6484375 175.8359375 C143.67679687 176.75117188 143.70515625 177.66640625 143.734375 178.609375 C142.41348289 186.78099567 134.43768498 192.32030915 128.67773438 197.62695312 C127.97068359 198.30564453 127.26363281 198.98433594 126.53515625 199.68359375 C125.88506592 200.28953369 125.23497559 200.89547363 124.56518555 201.51977539 C123.01873197 203.40834643 123.01873197 203.40834643 123.47192383 205.86499023 C123.73642334 206.72165283 124.00092285 207.57831543 124.2734375 208.4609375 C124.64662109 209.78544922 124.64662109 209.78544922 125.02734375 211.13671875 C125.42759766 212.44189453 125.42759766 212.44189453 125.8359375 213.7734375 C126.24005859 215.09794922 126.24005859 215.09794922 126.65234375 216.44921875 C126.85730469 217.11308594 127.06226563 217.77695313 127.2734375 218.4609375 C128.15080566 218.43999023 129.02817383 218.41904297 129.93212891 218.39746094 C133.20860433 218.3290115 136.48431262 218.27900699 139.76123047 218.24121094 C141.17541545 218.22117907 142.58951847 218.19394502 144.00341797 218.15917969 C146.04415169 218.11028261 148.0837844 218.08788627 150.125 218.0703125 C151.35041504 218.04936523 152.57583008 218.02841797 153.83837891 218.00683594 C159.19199279 218.71456315 162.08172843 220.97369843 165.41629028 225.13519287 C167.62055932 229.08255678 167.78015438 231.52275861 167.79101562 236.0234375 C167.80152954 237.12220215 167.80152954 237.12220215 167.81225586 238.24316406 C167.82977147 240.64948132 167.81823704 243.05460959 167.8046875 245.4609375 C167.80738429 247.14192936 167.81126827 248.82291971 167.81628418 250.50390625 C167.82217048 254.02098493 167.81364459 257.5376563 167.79492188 261.0546875 C167.77213251 265.55395939 167.7852603 270.05227677 167.80921173 274.55151367 C167.82369341 278.02090597 167.81905294 281.49007344 167.80870056 284.95947266 C167.80603981 286.61800246 167.80928007 288.27655294 167.81861877 289.93505859 C167.82882396 292.25673171 167.81323029 294.57687761 167.79101562 296.8984375 C167.78783325 298.21714844 167.78465088 299.53585937 167.78137207 300.89453125 C167.00938629 306.3149438 164.59862118 309.3497314 160.47021484 312.81152344 C156.71560242 314.74875893 154.33068089 314.92345448 150.125 314.8515625 C149.46760834 314.84590271 148.81021667 314.84024292 148.13290405 314.83441162 C146.05397559 314.81220025 143.97683587 314.7620417 141.8984375 314.7109375 C140.48049382 314.69085239 139.06252285 314.67260515 137.64453125 314.65625 C134.18692873 314.61238817 130.73035799 314.54347187 127.2734375 314.4609375 C126.79131536 316.02252809 126.31287877 317.58525678 125.8359375 319.1484375 C125.56910156 320.01855469 125.30226563 320.88867188 125.02734375 321.78515625 C124.65416016 323.10966797 124.65416016 323.10966797 124.2734375 324.4609375 C123.86097778 325.73022095 123.86097778 325.73022095 123.44018555 327.02514648 C123.01039529 329.56486375 123.01039529 329.56486375 124.78051758 331.61743164 C125.52712646 332.31989014 126.27373535 333.02234863 127.04296875 333.74609375 C127.84927734 334.52404297 128.65558594 335.30199219 129.48632812 336.10351562 C130.34419922 336.90208984 131.20207031 337.70066406 132.0859375 338.5234375 C133.76337882 340.11400448 135.43673546 341.70889318 137.10546875 343.30859375 C137.85546143 344.00992432 138.6054541 344.71125488 139.37817383 345.43383789 C142.75233681 349.04271014 143.57993486 351.94484936 143.6484375 356.8359375 C143.67679687 357.75117188 143.70515625 358.66640625 143.734375 359.609375 C142.79947848 365.39305687 138.49064192 369.49484314 134.4765625 373.51660156 C134.01423218 373.98243652 133.55190186 374.44827148 133.07556152 374.92822266 C131.56313943 376.44936712 130.04361578 377.96317233 128.5234375 379.4765625 C127.46227295 380.53907597 126.4014053 381.60188604 125.34082031 382.66497803 C123.12497892 384.88375742 120.9055873 387.09890566 118.68359375 389.31152344 C115.83878927 392.14490628 113.00309595 394.98721175 110.16998291 397.83227921 C107.9842822 400.02521053 105.793836 402.21335173 103.60192871 404.40007782 C102.55429364 405.44638117 101.50813548 406.49416552 100.46350098 407.54346466 C99.00389446 409.00815918 97.53801455 410.46627525 96.0703125 411.92285156 C95.23854492 412.75302795 94.40677734 413.58320435 93.54980469 414.4385376 C89.7519938 417.81263841 86.95088177 418.76517498 81.8984375 418.8359375 C80.98320312 418.86429687 80.06796875 418.89265625 79.125 418.921875 C70.95337933 417.60098289 65.41406585 409.62518498 60.10742188 403.86523438 C59.42873047 403.15818359 58.75003906 402.45113281 58.05078125 401.72265625 C57.44484131 401.07256592 56.83890137 400.42247559 56.21459961 399.75268555 C54.32602857 398.20623197 54.32602857 398.20623197 51.86938477 398.65942383 C51.01272217 398.92392334 50.15605957 399.18842285 49.2734375 399.4609375 C48.39042969 399.70972656 47.50742187 399.95851563 46.59765625 400.21484375 C45.29248047 400.61509766 45.29248047 400.61509766 43.9609375 401.0234375 C43.07792969 401.29285156 42.19492187 401.56226563 41.28515625 401.83984375 C40.62128906 402.04480469 39.95742188 402.24976563 39.2734375 402.4609375 C39.29438477 403.33830566 39.31533203 404.21567383 39.33691406 405.11962891 C39.4053635 408.39610433 39.45536801 411.67181262 39.49316406 414.94873047 C39.51319593 416.36291545 39.54042998 417.77701847 39.57519531 419.19091797 C39.62409239 421.23165169 39.64648873 423.2712844 39.6640625 425.3125 C39.68500977 426.53791504 39.70595703 427.76333008 39.72753906 429.02587891 C39.01981185 434.37949279 36.76067657 437.26922843 32.59918213 440.60379028 C28.65181822 442.80805932 26.21161639 442.96765438 21.7109375 442.97851562 C20.61217285 442.98902954 20.61217285 442.98902954 19.49121094 442.99975586 C17.08489368 443.01727147 14.67976541 443.00573704 12.2734375 442.9921875 C10.59244564 442.99488429 8.91145529 442.99876827 7.23046875 443.00378418 C3.71339007 443.00967048 0.1967187 443.00114459 -3.3203125 442.98242188 C-7.81958439 442.95963251 -12.31790177 442.9727603 -16.81713867 442.99671173 C-20.28653097 443.01119341 -23.75569844 443.00655294 -27.22509766 442.99620056 C-28.88362746 442.99353981 -30.54217794 442.99678007 -32.20068359 443.00611877 C-34.52235671 443.01632396 -36.84250261 443.00073029 -39.1640625 442.97851562 C-40.48277344 442.97533325 -41.80148437 442.97215088 -43.16015625 442.96887207 C-48.5805688 442.19688629 -51.6153564 439.78612118 -55.07714844 435.65771484 C-57.01438393 431.90310242 -57.18907948 429.51818089 -57.1171875 425.3125 C-57.11152771 424.65510834 -57.10586792 423.99771667 -57.10003662 423.32040405 C-57.07782525 421.24147559 -57.0276667 419.16433587 -56.9765625 417.0859375 C-56.95647739 415.66799382 -56.93823015 414.25002285 -56.921875 412.83203125 C-56.87801317 409.37442873 -56.80909687 405.91785799 -56.7265625 402.4609375 C-58.28815309 401.97881536 -59.85088178 401.50037877 -61.4140625 401.0234375 C-62.28417969 400.75660156 -63.15429688 400.48976563 -64.05078125 400.21484375 C-65.37529297 399.84166016 -65.37529297 399.84166016 -66.7265625 399.4609375 C-67.99584595 399.04847778 -67.99584595 399.04847778 -69.29077148 398.62768555 C-71.83048875 398.19789529 -71.83048875 398.19789529 -73.88305664 399.96801758 C-74.58551514 400.71462646 -75.28797363 401.46123535 -76.01171875 402.23046875 C-76.78966797 403.03677734 -77.56761719 403.84308594 -78.36914062 404.67382812 C-79.16771484 405.53169922 -79.96628906 406.38957031 -80.7890625 407.2734375 C-82.37962948 408.95087882 -83.97451818 410.62423546 -85.57421875 412.29296875 C-86.6262146 413.41795776 -86.6262146 413.41795776 -87.69946289 414.56567383 C-91.30833514 417.93983681 -94.21047436 418.76743486 -99.1015625 418.8359375 C-100.01679688 418.86429687 -100.93203125 418.89265625 -101.875 418.921875 C-107.65868187 417.98697848 -111.76046814 413.67814192 -115.78222656 409.6640625 C-116.24806152 409.20173218 -116.71389648 408.73940186 -117.19384766 408.26306152 C-118.71499212 406.75063943 -120.22879733 405.23111578 -121.7421875 403.7109375 C-122.80470097 402.64977295 -123.86751104 401.5889053 -124.93060303 400.52832031 C-127.14938242 398.31247892 -129.36453066 396.0930873 -131.57714844 393.87109375 C-134.41053128 391.02628927 -137.25283675 388.19059595 -140.09790421 385.35748291 C-142.29083553 383.1717822 -144.47897673 380.981336 -146.66570282 378.78942871 C-147.71200617 377.74179364 -148.75979052 376.69563548 -149.80908966 375.65100098 C-151.27378418 374.19139446 -152.73190025 372.72551455 -154.18847656 371.2578125 C-155.01865295 370.42604492 -155.84882935 369.59427734 -156.7041626 368.73730469 C-160.07826341 364.9394938 -161.03079998 362.13838177 -161.1015625 357.0859375 C-161.12992187 356.17070312 -161.15828125 355.25546875 -161.1875 354.3125 C-159.86660789 346.14087933 -151.89080998 340.60156585 -146.13085938 335.29492188 C-145.42380859 334.61623047 -144.71675781 333.93753906 -143.98828125 333.23828125 C-143.33819092 332.63234131 -142.68810059 332.02640137 -142.01831055 331.40209961 C-140.47185697 329.51352857 -140.47185697 329.51352857 -140.92504883 327.05688477 C-141.18954834 326.20022217 -141.45404785 325.34355957 -141.7265625 324.4609375 C-141.97535156 323.57792969 -142.22414062 322.69492187 -142.48046875 321.78515625 C-142.74730469 320.91503906 -143.01414063 320.04492188 -143.2890625 319.1484375 C-143.55847656 318.26542969 -143.82789063 317.38242187 -144.10546875 316.47265625 C-144.31042969 315.80878906 -144.51539063 315.14492188 -144.7265625 314.4609375 C-145.60393066 314.48188477 -146.48129883 314.50283203 -147.38525391 314.52441406 C-150.66172933 314.5928635 -153.93743762 314.64286801 -157.21435547 314.68066406 C-158.62854045 314.70069593 -160.04264347 314.72792998 -161.45654297 314.76269531 C-163.49727669 314.81159239 -165.5369094 314.83398873 -167.578125 314.8515625 C-168.80354004 314.87250977 -170.02895508 314.89345703 -171.29150391 314.91503906 C-176.66327832 314.2049111 -179.48644941 311.81723069 -183.07714844 307.89013672 C-185.39988354 303.06107556 -185.22669607 298.88269354 -185.1171875 293.59375 C-185.11152771 292.55902557 -185.10586792 291.52430115 -185.10003662 290.45822144 C-185.07772102 287.16698121 -185.02753216 283.87684636 -184.9765625 280.5859375 C-184.95649134 278.3489741 -184.93824165 276.11199357 -184.921875 273.875 C-184.87787215 268.40327136 -184.81100801 262.93218342 -184.7265625 257.4609375 C-189.82235611 255.71240098 -189.82235611 255.71240098 -194.97314453 256.11669922 C-195.84495361 256.74729248 -195.84495361 256.74729248 -196.734375 257.390625 C-197.40355957 257.85251221 -198.07274414 258.31439941 -198.76220703 258.7902832 C-199.79643799 259.55538208 -199.79643799 259.55538208 -200.8515625 260.3359375 C-202.34969169 261.37120207 -203.84971855 262.40372553 -205.3515625 263.43359375 C-206.09019531 263.94937988 -206.82882813 264.46516602 -207.58984375 264.99658203 C-222.50994823 275.22176332 -242.6647826 285.6417379 -261.265625 283.0234375 C-269.01345266 281.25250546 -274.35168344 277.10602408 -278.7265625 270.4609375 C-283.21381266 259.85061689 -281.47415048 247.00418505 -277.52734375 236.53125 C-273.0846224 226.17439872 -267.90726106 215.9108349 -261.4609375 206.65625 C-260.94031738 205.9039209 -260.41969727 205.1515918 -259.88330078 204.37646484 C-258.89033715 202.97264155 -257.86908618 201.58824389 -256.81591797 200.22900391 C-254.20347413 196.5767637 -254.20347413 196.5767637 -254.02441406 192.22680664 C-254.79043582 189.88994607 -255.70873615 187.69854387 -256.7265625 185.4609375 C-268.92960142 151.19569713 -267.93726231 116.0897426 -253.1015625 82.81640625 C-246.63380473 69.23710927 -238.07021999 58.19170792 -227.7265625 47.4609375 C-227.07171875 46.74292969 -226.416875 46.02492187 -225.7421875 45.28515625 C-219.84334135 38.99557457 -212.86539943 34.22623772 -205.7265625 29.4609375 C-204.79199219 28.83058594 -203.85742188 28.20023438 -202.89453125 27.55078125 C-175.27300883 10.20335873 -139.15392712 5.66384997 -107.50952148 12.53173828 C-100.96557543 14.15668386 -94.6851321 16.57528712 -88.54541016 19.34985352 C-84.54603297 21.1139066 -84.54603297 21.1139066 -80.2734375 21.0078125 C-76.44258538 18.68109863 -72.66622055 16.2875032 -68.9140625 13.8359375 C-51.19959799 2.49154002 -19.6391665 -17.50640633 0 0 Z M-38.0390625 34.2734375 C-38.70357422 34.62986328 -39.36808594 34.98628906 -40.05273438 35.35351562 C-43.66723493 37.30198526 -47.22485908 39.31385822 -50.7265625 41.4609375 C-49.31811532 44.67618055 -47.62311464 46.78277618 -45.1015625 49.2109375 C-44.46992188 49.82453125 -43.83828125 50.438125 -43.1875 51.0703125 C-42.70539063 51.52921875 -42.22328125 51.988125 -41.7265625 52.4609375 C-37.51995879 48.6521562 -34.98623701 44.80552843 -32.4140625 39.7734375 C-32.05505859 39.09732422 -31.69605469 38.42121094 -31.32617188 37.72460938 C-29.38601015 34.27708269 -29.38601015 34.27708269 -28.7265625 30.4609375 C-32.18360674 30.4609375 -35.05850474 32.65103666 -38.0390625 34.2734375 Z M-200.7265625 67.4609375 C-201.59925781 68.2653125 -202.47195312 69.0696875 -203.37109375 69.8984375 C-219.73244907 85.59748908 -231.47500683 108.13389903 -231.96484375 131.13671875 C-232.4587797 160.46721141 -225.06294605 184.24534197 -204.42578125 205.8125 C-201.09664711 209.0790021 -197.62887998 211.9115725 -193.7265625 214.4609375 C-184.76848809 207.54497731 -176.05210942 200.41867757 -167.50732422 192.99902344 C-165.67403863 191.41557139 -163.82916456 189.84667404 -161.98046875 188.28125 C-153.94969912 181.48261525 -153.94969912 181.48261525 -146.41331482 174.14674377 C-144.6812223 172.41562273 -142.87703313 170.82910174 -141.01586914 169.23803711 C-136.83158407 165.5989595 -132.88663501 161.76585254 -128.97265625 157.83984375 C-128.26810806 157.13625229 -127.56355988 156.43266083 -126.83766174 155.70774841 C-125.36002883 154.23079102 -123.88363793 152.75259008 -122.40844727 151.27319336 C-120.16989769 149.02928665 -117.92605777 146.79077046 -115.68164062 144.55273438 C-114.23665846 143.10709132 -112.79198658 141.66113805 -111.34765625 140.21484375 C-110.35674232 139.22696617 -110.35674232 139.22696617 -109.34580994 138.21913147 C-105.49462229 134.34880634 -101.82285257 130.37151382 -98.26072693 126.23321533 C-96.02011069 123.64483926 -93.68496414 121.15351584 -91.3515625 118.6484375 C-87.06918577 114.01286749 -83.01218112 109.2426146 -79.0546875 104.32421875 C-76.4126496 101.07486677 -73.69788801 97.89379034 -70.9765625 94.7109375 C-67.3305618 90.43545206 -63.86992953 86.12179207 -60.7265625 81.4609375 C-74.28140553 62.15555501 -94.60780159 49.17857298 -117.7265625 44.4609375 C-147.84348131 39.32376464 -178.02322907 46.36145023 -200.7265625 67.4609375 Z M-45.7265625 115.4609375 C-47.63270069 117.52692589 -49.43743677 119.6095191 -51.2265625 121.7734375 C-52.31243681 123.0649512 -53.39969573 124.35530194 -54.48828125 125.64453125 C-55.30498291 126.61302002 -55.30498291 126.61302002 -56.13818359 127.60107422 C-59.09889367 131.06782635 -62.18861869 134.41276813 -65.27734375 137.765625 C-67.25851013 139.94585595 -69.20550534 142.14643642 -71.140625 144.3671875 C-81.95677671 156.75372923 -93.55170595 168.38991254 -105.1640625 180.0234375 C-105.82149445 180.68345764 -106.47892639 181.34347778 -107.15628052 182.02349854 C-119.90755648 194.8143001 -119.90755648 194.8143001 -126.06420898 200.04370117 C-128.80744002 202.38243757 -131.41051397 204.87014225 -134.0390625 207.3359375 C-138.9413002 211.90043528 -143.98736294 216.21561528 -149.203125 220.421875 C-151.63303655 222.3853639 -154.03682226 224.3715274 -156.4140625 226.3984375 C-157.37892578 227.21634766 -157.37892578 227.21634766 -158.36328125 228.05078125 C-159.95824797 229.37368981 -159.95824797 229.37368981 -159.7265625 231.4609375 C-133.87026253 237.59734049 -108.28750816 233.22870684 -85.59814453 219.64599609 C-80.91454368 216.68040798 -76.77910664 213.22719516 -72.7265625 209.4609375 C-71.85386719 208.6565625 -70.98117188 207.8521875 -70.08203125 207.0234375 C-54.51010282 192.081857 -42.67638479 170.48292478 -41.58129883 148.55175781 C-41.55657639 145.27138213 -41.54090961 141.9914131 -41.5390625 138.7109375 C-41.52681641 137.58171875 -41.51457031 136.4525 -41.50195312 135.2890625 C-41.49005094 128.43340657 -42.06062839 122.11712296 -43.7265625 115.4609375 C-44.3865625 115.4609375 -45.0465625 115.4609375 -45.7265625 115.4609375 Z M-9.7265625 122.4609375 C-9.68015625 124.53890625 -9.63375 126.616875 -9.5859375 128.7578125 C-9.0913264 156.8253011 -13.55575517 179.52213071 -26.7265625 204.4609375 C-25.80101562 204.30238281 -24.87546875 204.14382812 -23.921875 203.98046875 C-10.72480702 202.11458495 4.00646888 201.90452833 16.2734375 207.4609375 C17.35625 207.94691406 18.4390625 208.43289062 19.5546875 208.93359375 C35.75450506 216.93887743 46.02215748 229.67379227 52.2734375 246.4609375 C56.57273136 260.36953026 56.3752114 278.15291431 50.2734375 291.4609375 C49.78746094 292.54246094 49.30148437 293.62398437 48.80078125 294.73828125 C40.8667682 310.81262921 28.05610108 321.42189279 11.2734375 327.4609375 C-6.21623934 332.53802305 -25.34389906 330.48544096 -41.21459961 321.85083008 C-56.34188026 313.10650013 -65.70612603 299.35983785 -70.8515625 282.8515625 C-72.10916072 277.56790764 -71.98032961 272.30095044 -71.9140625 266.8984375 C-71.9130957 265.39506836 -71.9130957 265.39506836 -71.91210938 263.86132812 C-71.88109601 258.62696072 -71.63071012 253.61819553 -70.7265625 248.4609375 C-71.22357666 248.70739014 -71.72059082 248.95384277 -72.23266602 249.20776367 C-82.85119168 254.44070013 -93.28136375 259.30235992 -104.7265625 262.4609375 C-105.83515625 262.77933594 -106.94375 263.09773437 -108.0859375 263.42578125 C-122.57369435 266.85792452 -137.93396491 265.70329195 -152.7265625 265.4609375 C-152.7265625 271.0709375 -152.7265625 276.6809375 -152.7265625 282.4609375 C-150.91929687 282.48671875 -149.11203125 282.5125 -147.25 282.5390625 C-144.86716357 282.59534997 -142.484352 282.65269716 -140.1015625 282.7109375 C-138.91175781 282.72511719 -137.72195312 282.73929688 -136.49609375 282.75390625 C-125.04383953 283.07380162 -125.04383953 283.07380162 -120.7265625 287.4609375 C-117.30067758 292.72692654 -115.41007636 298.81602059 -113.3515625 304.7109375 C-111.33664159 310.39284953 -109.19722385 315.72274625 -106.2890625 321.0234375 C-103.62150484 326.14400394 -102.32238327 330.74392205 -103.7265625 336.4609375 C-106.45365475 342.12591174 -109.96209197 346.07744428 -114.4765625 350.3984375 C-115.07855469 350.98689453 -115.68054688 351.57535156 -116.30078125 352.18164062 C-117.76920898 353.61510579 -119.24693227 355.0390385 -120.7265625 356.4609375 C-116.34213724 361.71268676 -111.71814157 366.59316223 -106.8515625 371.3984375 C-106.16320312 372.08228516 -105.47484375 372.76613281 -104.765625 373.47070312 C-103.08822739 375.13645214 -101.40852459 376.7997997 -99.7265625 378.4609375 C-95.85736157 375.21358458 -92.12844337 371.95847957 -88.6640625 368.2734375 C-84.15101717 363.76039217 -80.59534454 361.34612126 -74.09765625 361.140625 C-68.46430402 361.20398999 -64.5580635 362.95837352 -59.6640625 365.5859375 C-52.66617651 369.14216006 -45.73992253 372.08789601 -38.24584961 374.43212891 C-33.41816328 375.99751111 -29.40851878 377.80500258 -26.61816406 382.21118164 C-25.48762024 385.06385452 -25.402672 387.47321458 -25.3125 390.5390625 C-25.25908447 392.10769043 -25.25908447 392.10769043 -25.20458984 393.70800781 C-25.17059082 395.02897461 -25.1365918 396.34994141 -25.1015625 397.7109375 C-24.9778125 401.9184375 -24.8540625 406.1259375 -24.7265625 410.4609375 C-14.1665625 410.4609375 -3.6065625 410.4609375 7.2734375 410.4609375 C7.44357369 402.17489909 7.44357369 402.17489909 7.57128906 393.88818359 C7.89845527 382.76625441 7.89845527 382.76625441 12.2734375 378.4609375 C17.53942654 375.03505258 23.62852059 373.14445136 29.5234375 371.0859375 C35.20534953 369.07101659 40.53524625 366.93159885 45.8359375 364.0234375 C50.95650394 361.35587984 55.55642205 360.05675827 61.2734375 361.4609375 C66.93841174 364.18802975 70.88994428 367.69646697 75.2109375 372.2109375 C75.79939453 372.81292969 76.38785156 373.41492188 76.99414062 374.03515625 C78.42760579 375.50358398 79.8515385 376.98130727 81.2734375 378.4609375 C86.52518676 374.07651224 91.40566223 369.45251657 96.2109375 364.5859375 C96.89478516 363.89757812 97.57863281 363.20921875 98.28320312 362.5 C99.94895214 360.82260239 101.6122997 359.14289959 103.2734375 357.4609375 C100.02608458 353.59173657 96.77097957 349.86281837 93.0859375 346.3984375 C88.57289217 341.88539217 86.15862126 338.32971954 85.953125 331.83203125 C86.01648999 326.19867902 87.77087352 322.2924385 90.3984375 317.3984375 C93.95466006 310.40055151 96.90039601 303.47429753 99.24462891 295.98022461 C100.81001111 291.15253828 102.61750258 287.14289378 107.02368164 284.35253906 C109.87635452 283.22199524 112.28571458 283.137047 115.3515625 283.046875 C116.39731445 283.01126465 117.44306641 282.9756543 118.52050781 282.93896484 C119.84147461 282.90496582 121.16244141 282.8709668 122.5234375 282.8359375 C126.7309375 282.7121875 130.9384375 282.5884375 135.2734375 282.4609375 C135.2734375 271.9009375 135.2734375 261.3409375 135.2734375 250.4609375 C126.98739909 250.29080131 126.98739909 250.29080131 118.70068359 250.16308594 C107.57875441 249.83591973 107.57875441 249.83591973 103.2734375 245.4609375 C99.84755258 240.19494846 97.95695136 234.10585441 95.8984375 228.2109375 C93.88351659 222.52902547 91.74409885 217.19912875 88.8359375 211.8984375 C86.16837984 206.77787106 84.86925827 202.17795295 86.2734375 196.4609375 C89.00052975 190.79596326 92.50896697 186.84443072 97.0234375 182.5234375 C97.92642578 181.64075195 97.92642578 181.64075195 98.84765625 180.74023438 C100.31608398 179.30676921 101.79380727 177.8828365 103.2734375 176.4609375 C98.88901224 171.20918824 94.26501657 166.32871277 89.3984375 161.5234375 C88.36589844 160.49766602 88.36589844 160.49766602 87.3125 159.45117188 C85.63510239 157.78542286 83.95539959 156.1220753 82.2734375 154.4609375 C78.40423657 157.70829042 74.67531837 160.96339543 71.2109375 164.6484375 C66.69789217 169.16148283 63.14221954 171.57575374 56.64453125 171.78125 C51.01117902 171.71788501 47.1049385 169.96350148 42.2109375 167.3359375 C35.21305151 163.77971494 28.28679753 160.83397899 20.79272461 158.48974609 C15.96503828 156.92436389 11.95539378 155.11687242 9.16503906 150.71069336 C8.03449524 147.85802048 7.949547 145.44866042 7.859375 142.3828125 C7.82070313 141.22265625 7.78203125 140.0625 7.7421875 138.8671875 C7.69578125 137.05734375 7.69578125 137.05734375 7.6484375 135.2109375 C7.60976563 133.98890625 7.57109375 132.766875 7.53125 131.5078125 C7.43701946 128.49243524 7.35414119 125.4767071 7.2734375 122.4609375 C1.6634375 122.4609375 -3.9465625 122.4609375 -9.7265625 122.4609375 Z M-233.7265625 224.4609375 C-235.38009509 227.37330289 -237.02301155 230.29152354 -238.6640625 233.2109375 C-239.36692383 234.4484375 -239.36692383 234.4484375 -240.08398438 235.7109375 C-240.53193359 236.51015625 -240.97988281 237.309375 -241.44140625 238.1328125 C-241.85511475 238.8659668 -242.26882324 239.59912109 -242.69506836 240.35449219 C-243.69233251 242.3910354 -244.2693095 244.24687034 -244.7265625 246.4609375 C-239.90108574 245.03253717 -235.80428337 243.02196279 -231.4765625 240.5234375 C-230.85265625 240.17603516 -230.22875 239.82863281 -229.5859375 239.47070312 C-226.46929367 237.6873649 -224.7515893 236.4984777 -222.7265625 233.4609375 C-224.17873926 231.95497642 -225.63849111 230.45631646 -227.1015625 228.9609375 C-227.91367188 228.125625 -228.72578125 227.2903125 -229.5625 226.4296875 C-231.4855284 224.23662464 -231.4855284 224.23662464 -233.7265625 224.4609375 Z M-33.7265625 246.4609375 C-39.68340425 255.23320197 -40.53517215 262.92623431 -39.7265625 273.4609375 C-37.54278435 282.70767813 -32.56758149 288.89231983 -24.6015625 293.8359375 C-16.74114338 298.41506017 -7.67793476 298.86645726 1.16796875 296.77734375 C11.05149536 293.11846524 16.6691002 286.82412007 21.2734375 277.4609375 C24.04810327 269.3219179 23.14280453 259.31530643 19.5234375 251.63671875 C15.1874445 244.08938094 8.71841024 238.6580873 0.3828125 235.81640625 C-12.90874956 233.5765319 -24.68916956 236.17839265 -33.7265625 246.4609375 Z " fill="#000000" transform="translate(312.7265625,37.5390625)"/>
</svg>
