<svg version="1.1" id="Layer_1" xmlns="http://www.w3.org/2000/svg" xmlns:xlink="http://www.w3.org/1999/xlink" x="0px" y="0px"
	 width="100%" viewBox="0 0 512 512" enable-background="new 0 0 512 512" xml:space="preserve">
<path fill="#00000000" opacity="1.000000" stroke="none" 
	d="
M513.000000,184.000000 
	C513.000000,293.973267 513.000000,403.446533 513.000000,512.959900 
	C342.401733,512.959900 171.803436,512.959900 1.102575,512.959900 
	C1.102575,342.443420 1.102575,171.886780 1.102575,1.165060 
	C171.666534,1.165060 342.333252,1.165060 513.000000,1.165060 
	C513.000000,61.863194 513.000000,122.681595 513.000000,184.000000 
M287.957520,123.237091 
	C285.449615,118.095848 281.550781,116.566719 275.150940,118.404602 
	C261.041168,122.456581 247.443680,127.673950 234.651917,135.047226 
	C211.086700,148.630432 191.317047,166.259277 175.848099,188.673004 
	C165.860748,203.144211 157.840118,218.573486 152.790756,235.473724 
	C150.902420,241.793991 152.218048,244.768173 157.649261,247.883362 
	C156.469772,254.270981 155.290268,260.658600 153.763809,267.614746 
	C146.754837,275.328430 139.890335,283.182495 132.631149,290.653046 
	C130.904984,292.429443 127.928665,293.596283 125.403427,293.860992 
	C120.624138,294.362000 115.751762,293.890747 110.923805,294.026886 
	C92.986946,294.532745 77.273155,300.870148 64.389732,313.255951 
	C49.378922,327.686951 34.862904,342.632996 20.149240,357.372559 
	C14.104012,363.428436 15.692050,370.286224 23.804525,373.035828 
	C37.563370,377.699188 51.377579,382.202759 65.080902,387.022614 
	C67.188072,387.763733 69.298805,389.505249 70.589737,391.355072 
	C73.674057,395.774689 76.075882,400.666412 79.098106,405.134308 
	C90.126030,421.437439 104.763695,433.676178 121.935760,443.129242 
	C124.112915,444.327728 126.167351,446.839996 127.007431,449.196747 
	C131.884552,462.878815 136.342682,476.709564 141.021423,490.463196 
	C143.676071,498.266785 150.615784,499.839966 156.463303,494.006531 
	C171.443573,479.062347 186.400772,464.095001 201.351959,449.121704 
	C202.284943,448.187317 203.278625,447.230530 203.918701,446.099945 
	C208.436554,438.120239 212.869217,430.092255 217.883606,422.393524 
	C221.486481,424.970062 225.089355,427.546600 228.831085,430.872528 
	C226.760712,435.757446 228.715073,439.400482 232.795181,441.860809 
	C254.942886,455.215973 279.220215,462.706421 304.753418,464.748810 
	C332.684265,466.982971 360.210114,463.828918 386.508026,453.037598 
	C406.113586,444.992462 423.953583,434.114960 439.533142,419.832611 
	C458.376526,402.558258 473.068665,382.242340 483.260956,358.615509 
	C490.657867,341.468750 495.442322,323.621735 496.763947,305.205994 
	C498.768372,277.274963 495.897034,249.784332 485.051666,223.491943 
	C476.393066,202.500916 464.447174,183.734024 448.799866,167.316818 
	C431.699127,149.374634 411.779816,135.464188 388.856964,125.984352 
	C369.819489,118.111343 350.075684,113.305534 329.369202,113.007698 
	C326.764069,112.970222 324.157990,113.002586 321.010864,113.002586 
	C321.010864,99.202507 321.010864,86.088364 321.896301,72.997406 
	C324.260773,72.991348 326.625275,72.985298 329.000916,73.773911 
	C329.846680,79.574188 331.293701,80.968079 336.977478,80.980751 
	C355.470123,81.021980 373.962952,81.013222 392.455658,80.987770 
	C399.060760,80.978683 400.978760,79.026917 400.989349,72.342606 
	C401.013611,57.015339 401.004761,41.688000 400.994019,26.360695 
	C400.988678,18.731770 399.270050,17.008585 391.648499,17.005989 
	C365.991913,16.997248 340.335358,16.999014 314.678772,17.004726 
	C306.697815,17.006504 305.013733,18.669373 305.003967,26.533424 
	C304.964844,58.019955 304.930847,89.506493 304.075836,121.005219 
	C302.352448,121.335594 300.631073,121.676788 298.905273,121.994102 
	C295.287750,122.659241 291.667938,123.311821 287.957520,123.237091 
M42.997700,437.502258 
	C38.624641,441.544312 33.904930,445.285675 30.026537,449.756805 
	C28.122330,451.952026 26.567739,455.674835 26.960772,458.402924 
	C28.029728,465.822906 36.383198,467.826874 42.180412,462.282196 
	C48.303120,456.426178 54.123524,450.255249 60.196598,444.345825 
	C64.568367,440.091888 69.277771,436.180115 73.573822,431.854767 
	C76.865242,428.540894 76.850433,424.336914 75.024582,420.330414 
	C73.084305,416.072876 68.952690,416.706482 65.458191,417.220642 
	C63.543415,417.502411 61.598526,419.044128 60.106800,420.475739 
	C54.473160,425.882416 49.019600,431.476746 42.997700,437.502258 
M84.273827,467.332367 
	C85.994453,462.614105 85.555878,458.140320 80.867142,455.731812 
	C77.421356,453.961761 73.322517,454.280579 70.258415,457.298279 
	C61.849682,465.579742 53.453068,473.878143 45.249485,482.361145 
	C41.672840,486.059570 41.766445,492.356812 44.936100,495.326263 
	C47.706085,497.921295 54.613438,497.770020 57.790298,494.627777 
	C66.639709,485.874908 75.315277,476.946320 84.273827,467.332367 
M136.573563,65.002419 
	C130.691010,65.625183 129.100159,67.156502 129.020996,72.612419 
	C128.938980,78.265396 128.927811,83.921822 129.025909,89.574303 
	C129.117523,94.851997 131.380615,96.938789 136.760254,96.997391 
	C142.550507,97.060463 144.875748,95.036896 144.973526,89.566338 
	C145.074554,83.913956 145.061279,78.257431 144.978546,72.604469 
	C144.898758,67.153030 143.302597,65.620155 136.573563,65.002419 
M128.999863,27.677679 
	C129.002808,32.494740 128.888016,37.315563 129.041855,42.127796 
	C129.195435,46.932209 131.607513,48.950459 136.801605,48.997379 
	C142.401917,49.047977 144.830597,47.103012 144.957825,42.037907 
	C145.107910,36.061867 145.087234,30.077272 144.964600,24.099997 
	C144.866547,19.320429 142.658005,17.224062 137.924911,17.006056 
	C130.964615,16.685463 129.055115,18.766861 128.999863,27.677679 
M97.008133,55.759045 
	C97.092949,63.334591 98.770782,64.984856 106.437416,64.997963 
	C111.592911,65.006775 116.751076,65.098099 121.903198,64.964973 
	C127.027420,64.832573 129.017654,62.461864 128.997375,56.921364 
	C128.977448,51.469368 126.924103,49.134331 121.734688,49.030296 
	C116.082512,48.916988 110.425430,49.064758 104.772209,48.981541 
	C100.556709,48.919483 97.742157,50.500328 97.008133,55.759045 
M151.090912,49.026352 
	C145.769119,50.729313 144.189224,53.294960 145.044006,59.082226 
	C145.744675,63.826073 148.930527,65.128090 153.265335,65.027313 
	C158.414520,64.907608 163.568878,65.031250 168.720520,64.990685 
	C174.848526,64.942436 176.965164,62.899292 176.997375,57.116161 
	C177.030075,51.244141 174.909576,49.067677 168.941330,49.012661 
	C163.291290,48.960579 157.640350,49.004665 151.090912,49.026352 
M58.240982,193.008224 
	C50.666813,193.092941 49.017704,194.771011 49.001507,202.429504 
	C48.995880,205.089050 48.882996,207.756256 49.042831,210.406494 
	C49.325367,215.091187 51.767189,217.020966 57.089344,216.997406 
	C62.386032,216.973969 64.731285,215.038864 64.960640,210.239594 
	C65.111237,207.088379 64.934471,203.922943 65.012970,200.766556 
	C65.117783,196.552155 63.496136,193.741623 58.240982,193.008224 
M63.912796,155.871170 
	C61.166458,152.076035 57.104374,152.384964 53.561588,153.506744 
	C51.694386,154.097961 49.584953,156.760818 49.252262,158.765060 
	C48.581078,162.808517 48.794838,167.061157 49.121037,171.189789 
	C49.427467,175.068237 52.036793,176.843430 55.881535,177.011124 
	C59.974140,177.189636 64.178207,176.692322 64.697868,171.921371 
	C65.243767,166.909515 64.442986,161.750992 63.912796,155.871170 
M78.386383,176.999832 
	C76.062172,177.006271 73.728317,176.879486 71.415779,177.047028 
	C66.686432,177.389648 64.952316,180.291946 64.980080,184.754913 
	C65.013367,190.105286 66.841805,192.680130 71.423485,192.939819 
	C75.064178,193.146164 78.728592,193.074539 82.377342,192.961151 
	C86.500816,192.832962 88.672607,190.584763 88.993378,186.461655 
	C89.550888,179.295517 87.283722,177.058456 78.386383,176.999832 
M35.613693,193.000168 
	C37.937897,192.993546 40.270981,193.114548 42.584442,192.953552 
	C47.324619,192.623718 49.045181,189.717133 49.019714,185.256622 
	C48.989132,179.900711 47.165775,177.322571 42.587925,177.060760 
	C38.947418,176.852570 35.282730,176.922958 31.634138,177.038696 
	C27.514410,177.169403 25.332003,179.419601 25.007473,183.538574 
	C24.441803,190.718063 26.698984,192.941452 35.613693,193.000168 
z"/>
<path fill="#FE8A80" opacity="1.000000" stroke="none" 
	d="
M154.110779,267.046234 
	C155.290268,260.658600 156.469772,254.270981 158.258362,247.537842 
	C165.249634,247.065308 166.717789,245.884537 168.984924,239.169037 
	C178.142395,212.043762 193.009293,188.690018 215.218155,169.921875 
	C219.733887,169.607635 223.808502,169.271225 228.029633,169.258545 
	C231.375717,175.446167 233.782761,176.399017 241.731506,174.965790 
	C246.735825,174.063446 248.953400,170.867569 249.561401,165.992676 
	C251.916214,165.937088 253.854828,165.882233 255.949158,166.164825 
	C259.749115,172.615829 262.472321,173.292053 272.903900,170.751984 
	C278.048126,169.499390 280.278778,166.144165 280.469055,160.913757 
	C293.583344,156.200623 306.474854,151.925201 319.027649,146.817383 
	C329.888641,142.397949 340.365082,137.033524 351.412659,132.063873 
	C458.825287,154.136902 502.087555,264.838013 471.589111,340.411621 
	C469.476990,337.316620 467.549683,334.452057 465.581116,331.616211 
	C461.344879,325.513611 455.478912,321.617462 448.144867,321.230713 
	C431.518646,320.353912 414.878387,319.482788 399.950134,329.618011 
	C396.663239,331.849548 391.795532,332.504028 387.635223,332.569031 
	C368.485260,332.868073 349.328064,332.685791 330.173492,332.709534 
	C322.746460,332.718750 321.178558,333.939636 318.903381,340.937561 
	C314.681000,339.281158 310.813049,337.608734 306.988098,335.577545 
	C308.761780,329.451752 305.707977,326.288605 301.042389,323.782318 
	C295.514984,320.813080 293.041992,320.961731 287.783020,325.007019 
	C283.258331,322.946594 279.092865,320.959686 274.987885,318.616760 
	C290.239746,289.299683 298.378448,258.511292 298.914520,225.775818 
	C299.046326,217.728378 296.214783,214.896347 288.108643,215.081711 
	C240.055878,216.180405 197.568878,232.162613 160.584961,262.859070 
	C158.621231,264.488922 156.277573,265.661041 154.110779,267.046234 
M371.060883,177.203888 
	C374.195923,175.405640 375.794708,177.796432 377.821960,179.495529 
	C380.995636,182.155487 384.579041,182.332214 387.830017,179.739578 
	C391.028503,177.188828 391.903564,173.786804 390.021240,169.967957 
	C386.196106,162.207703 374.762421,158.052780 366.905548,161.564087 
	C362.705505,163.441116 360.205017,166.441193 361.006927,171.310944 
	C361.696930,175.501083 364.797913,177.482758 371.060883,177.203888 
M343.851929,179.812851 
	C337.733032,179.676620 333.857452,183.011276 334.013306,188.278290 
	C334.148773,192.855911 338.071472,196.409882 342.640381,195.962219 
	C346.607025,195.573563 349.083618,193.227951 349.791595,189.416092 
	C350.612640,184.995529 349.166229,181.539307 343.851929,179.812851 
M356.949860,244.822800 
	C356.540863,244.303268 356.208466,243.691162 355.710510,243.279144 
	C352.359955,240.506897 348.752106,239.989838 345.315948,242.878555 
	C342.090759,245.589890 340.879181,249.144409 342.944550,253.120071 
	C344.738281,256.572845 347.737396,258.222443 351.629272,257.287231 
	C356.181580,256.193268 358.083130,252.941193 357.946594,248.420670 
	C357.917389,247.454102 357.520233,246.498642 356.949860,244.822800 
M422.336761,269.464966 
	C418.517212,271.386078 416.075439,274.641815 417.364197,278.663971 
	C418.173950,281.191071 420.933136,284.112030 423.389221,284.792023 
	C425.617889,285.409058 429.792175,283.976562 430.984528,282.098785 
	C432.475647,279.750519 432.705719,275.736145 431.829742,272.962189 
	C430.652039,269.232697 426.856750,268.520905 422.336761,269.464966 
z"/>
<path fill="#465A64" opacity="1.000000" stroke="none" 
	d="
M319.257843,340.921509 
	C321.178558,333.939636 322.746460,332.718750 330.173492,332.709534 
	C349.328064,332.685791 368.485260,332.868073 387.635223,332.569031 
	C391.795532,332.504028 396.663239,331.849548 399.950134,329.618011 
	C414.878387,319.482788 431.518646,320.353912 448.144867,321.230713 
	C455.478912,321.617462 461.344879,325.513611 465.581116,331.616211 
	C467.549683,334.452057 469.476990,337.316620 471.589111,340.411621 
	C502.087555,264.838013 458.825287,154.136902 351.029785,131.927917 
	C340.643555,130.668961 331.041412,129.522980 320.992432,128.323669 
	C320.992432,131.867020 321.055878,134.007309 320.979919,136.142639 
	C320.788757,141.516510 317.535156,145.024338 312.885559,144.953873 
	C308.247406,144.883575 305.137238,141.375839 305.020752,135.919907 
	C304.914581,130.945648 304.932007,125.968758 304.894958,120.993027 
	C304.930847,89.506493 304.964844,58.019955 305.003967,26.533424 
	C305.013733,18.669373 306.697815,17.006504 314.678772,17.004726 
	C340.335358,16.999014 365.991913,16.997248 391.648499,17.005989 
	C399.270050,17.008585 400.988678,18.731770 400.994019,26.360695 
	C401.004761,41.688000 401.013611,57.015339 400.989349,72.342606 
	C400.978760,79.026917 399.060760,80.978683 392.455658,80.987770 
	C373.962952,81.013222 355.470123,81.021980 336.977478,80.980751 
	C331.293701,80.968079 329.846680,79.574188 329.022034,73.008896 
	C330.084503,66.888130 333.559570,64.920319 338.751373,64.972359 
	C348.244843,65.067520 357.739899,64.998833 367.234314,64.998604 
	C373.006805,64.998466 378.779327,64.998573 384.598877,64.998573 
	C384.598877,54.008018 384.598877,43.638393 384.598877,33.308983 
	C363.284637,33.308983 342.371613,33.308983 321.010864,33.308983 
	C321.010864,46.732681 321.010864,59.853451 321.010864,72.974220 
	C321.010864,86.088364 321.010864,99.202507 321.010864,113.002586 
	C324.157990,113.002586 326.764069,112.970222 329.369202,113.007698 
	C350.075684,113.305534 369.819489,118.111343 388.856964,125.984352 
	C411.779816,135.464188 431.699127,149.374634 448.799866,167.316818 
	C464.447174,183.734024 476.393066,202.500916 485.051666,223.491943 
	C495.897034,249.784332 498.768372,277.274963 496.763947,305.205994 
	C495.442322,323.621735 490.657867,341.468750 483.260956,358.615509 
	C473.068665,382.242340 458.376526,402.558258 439.533142,419.832611 
	C423.953583,434.114960 406.113586,444.992462 386.508026,453.037598 
	C360.210114,463.828918 332.684265,466.982971 304.753418,464.748810 
	C279.220215,462.706421 254.942886,455.215973 232.795181,441.860809 
	C228.715073,439.400482 226.760712,435.757446 229.127167,430.399689 
	C235.034912,425.251312 236.613251,425.121948 243.223557,428.751251 
	C267.753662,442.219360 293.931061,449.230316 322.452332,448.887146 
	C332.332550,447.977966 341.915314,447.799011 351.154419,445.925385 
	C401.218201,435.772705 438.187073,407.711212 462.803528,363.101257 
	C464.237976,360.501801 464.447205,358.357300 462.569122,355.790375 
	C459.229218,351.225525 456.438599,346.250183 452.986145,341.780273 
	C451.468353,339.815094 448.891083,337.366211 446.794128,337.365509 
	C434.838470,337.361664 422.554352,334.582306 411.334351,341.866638 
	C405.070282,345.933472 398.149658,348.822083 390.272614,348.763641 
	C370.286285,348.615356 350.298035,348.749603 330.310760,348.694885 
	C323.442993,348.676086 321.564636,347.248901 319.257843,340.921509 
z"/>
<path fill="#475B65" opacity="1.000000" stroke="none" 
	d="
M153.937286,267.330505 
	C156.277573,265.661041 158.621231,264.488922 160.584961,262.859070 
	C197.568878,232.162613 240.055878,216.180405 288.108643,215.081711 
	C296.214783,214.896347 299.046326,217.728378 298.914520,225.775818 
	C298.378448,258.511292 290.239746,289.299683 274.726685,318.834900 
	C261.108887,343.366394 243.964386,364.075409 222.525452,381.216614 
	C221.181549,382.291138 220.045822,384.414886 219.951126,386.113953 
	C219.674774,391.072327 219.975525,396.062866 219.955505,401.453979 
	C219.016998,408.604675 218.173035,415.342163 217.329071,422.079681 
	C212.869217,430.092255 208.436554,438.120239 203.918701,446.099945 
	C203.278625,447.230530 202.284943,448.187317 201.351959,449.121704 
	C186.400772,464.095001 171.443573,479.062347 156.463303,494.006531 
	C150.615784,499.839966 143.676071,498.266785 141.021423,490.463196 
	C136.342682,476.709564 131.884552,462.878815 127.007431,449.196747 
	C126.167351,446.839996 124.112915,444.327728 121.935760,443.129242 
	C104.763695,433.676178 90.126030,421.437439 79.098106,405.134308 
	C76.075882,400.666412 73.674057,395.774689 70.589737,391.355072 
	C69.298805,389.505249 67.188072,387.763733 65.080902,387.022614 
	C51.377579,382.202759 37.563370,377.699188 23.804525,373.035828 
	C15.692050,370.286224 14.104012,363.428436 20.149240,357.372559 
	C34.862904,342.632996 49.378922,327.686951 64.389732,313.255951 
	C77.273155,300.870148 92.986946,294.532745 110.923805,294.026886 
	C115.751762,293.890747 120.624138,294.362000 125.403427,293.860992 
	C127.928665,293.596283 130.904984,292.429443 132.631149,290.653046 
	C139.890335,283.182495 146.754837,275.328430 153.937286,267.330505 
M225.128220,357.631256 
	C260.650177,323.064484 279.680084,281.069397 282.828827,230.304855 
	C269.986450,232.504150 258.009552,233.724838 246.474396,236.673523 
	C194.847107,249.870773 155.398880,279.658020 129.074509,325.980927 
	C117.666351,346.055847 106.134880,365.752747 87.989410,380.603088 
	C85.453514,382.678497 85.794785,384.499969 87.183067,386.996338 
	C95.875923,402.627197 107.806709,415.132629 123.034065,424.487579 
	C130.369141,428.993866 130.392532,428.956909 136.464722,422.882446 
	C141.798843,417.546356 147.131836,412.209167 152.655548,406.682159 
	C150.660233,405.464691 149.259277,404.835052 148.128387,403.884216 
	C139.113602,396.304382 130.014862,388.814545 121.244347,380.959381 
	C118.192726,378.226288 118.182114,374.359558 120.687462,370.948303 
	C123.066925,367.708466 126.484642,366.968536 130.041061,368.391205 
	C131.785843,369.089172 133.261200,370.704376 134.594193,372.148407 
	C143.274490,381.551758 153.211517,389.282593 164.811310,394.726715 
	C166.382065,395.463959 168.900101,395.803680 170.293640,395.053467 
	C189.666779,384.623566 208.702393,373.652344 225.128220,357.631256 
M90.154884,315.607178 
	C87.000580,317.446350 83.367447,318.775146 80.772102,321.210114 
	C67.093964,334.042816 53.677643,347.154602 39.499821,360.815796 
	C51.008488,364.694672 61.491611,368.325378 72.071838,371.646790 
	C73.159325,371.988190 75.092651,370.774689 76.185310,369.786896 
	C90.083214,357.222809 102.539986,343.518768 110.381027,326.177887 
	C111.676918,323.311951 113.475304,320.673523 115.037170,317.927490 
	C116.388306,315.551971 117.733368,313.173004 119.378433,310.271088 
	C108.879578,309.889313 99.639725,311.356934 90.154884,315.607178 
M203.670593,402.290955 
	C203.670593,399.928436 203.670593,397.565918 203.670593,395.003876 
	C181.271271,406.442688 160.102890,418.237579 144.259018,437.520203 
	C142.398758,439.784180 141.920944,441.401001 142.890854,444.113892 
	C145.970169,452.726776 148.747665,461.447296 151.678665,470.113770 
	C152.062256,471.248047 152.660767,472.309631 153.364655,473.854675 
	C164.180603,463.030640 174.431885,452.559570 184.921249,442.332611 
	C195.998718,431.532135 202.573853,418.703369 203.670593,402.290955 
z"/>
<path fill="#FE8A80" opacity="1.000000" stroke="none" 
	d="
M217.606339,422.236603 
	C218.173035,415.342163 219.016998,408.604675 220.339417,401.421204 
	C223.576370,400.290619 226.334885,399.605957 229.513855,398.958862 
	C234.614685,399.940369 238.013397,398.251556 240.518616,393.933350 
	C246.827835,391.835724 252.698471,388.477264 258.768677,388.066284 
	C273.475708,387.070618 288.278809,387.227478 303.035858,387.436646 
	C306.455048,387.485138 310.432617,388.834991 313.137817,390.909912 
	C321.176208,397.075317 322.245636,404.855896 316.432770,413.707794 
	C311.906403,420.600616 311.903290,427.199371 315.584625,434.337738 
	C318.002228,439.025604 319.877899,443.992981 321.996246,448.835205 
	C293.931061,449.230316 267.753662,442.219360 243.223557,428.751251 
	C236.613251,425.121948 235.034912,425.251312 229.057739,430.024994 
	C225.089355,427.546600 221.486481,424.970062 217.606339,422.236603 
M272.540009,424.205078 
	C272.651184,424.689514 272.717560,425.189575 272.880493,425.655945 
	C274.443726,430.130096 277.737152,431.903839 282.213623,431.006561 
	C286.621948,430.122955 288.428894,426.882782 288.362946,422.601471 
	C288.298035,418.389221 286.114227,415.749847 281.924225,415.034088 
	C277.762848,414.323212 274.365845,416.626434 272.901337,421.026703 
	C272.643311,421.801910 272.606659,422.650848 272.540009,424.205078 
z"/>
<path fill="#465B64" opacity="1.000000" stroke="none" 
	d="
M214.777054,169.899673 
	C193.009293,188.690018 178.142395,212.043762 168.984924,239.169037 
	C166.717789,245.884537 165.249634,247.065308 158.449249,247.205215 
	C152.218048,244.768173 150.902420,241.793991 152.790756,235.473724 
	C157.840118,218.573486 165.860748,203.144211 175.848099,188.673004 
	C191.317047,166.259277 211.086700,148.630432 234.651917,135.047226 
	C247.443680,127.673950 261.041168,122.456581 275.150940,118.404602 
	C281.550781,116.566719 285.449615,118.095848 287.947632,124.000885 
	C288.158905,130.455643 284.950928,132.972397 279.804626,134.388870 
	C255.362549,141.116196 233.408264,152.488205 214.777054,169.899673 
z"/>
<path fill="#80D8FF" opacity="1.000000" stroke="none" 
	d="
M321.453583,72.985809 
	C321.010864,59.853451 321.010864,46.732681 321.010864,33.308983 
	C342.371613,33.308983 363.284637,33.308983 384.598877,33.308983 
	C384.598877,43.638393 384.598877,54.008018 384.598877,64.998573 
	C378.779327,64.998573 373.006805,64.998466 367.234314,64.998604 
	C357.739899,64.998833 348.244843,65.067520 338.751373,64.972359 
	C333.559570,64.920319 330.084503,66.888130 329.016449,72.611565 
	C326.625275,72.985298 324.260773,72.991348 321.453583,72.985809 
z"/>
<path fill="#FDACA8" opacity="1.000000" stroke="none" 
	d="
M215.218155,169.921875 
	C233.408264,152.488205 255.362549,141.116196 279.804626,134.388870 
	C284.950928,132.972397 288.158905,130.455643 287.993378,124.367126 
	C291.667938,123.311821 295.287750,122.659241 298.905273,121.994102 
	C300.631073,121.676788 302.352448,121.335594 304.485413,120.999123 
	C304.932007,125.968758 304.914581,130.945648 305.020752,135.919907 
	C305.137238,141.375839 308.247406,144.883575 312.885559,144.953873 
	C317.535156,145.024338 320.788757,141.516510 320.979919,136.142639 
	C321.055878,134.007309 320.992432,131.867020 320.992432,128.323669 
	C331.041412,129.522980 340.643555,130.668961 350.628601,131.950867 
	C340.365082,137.033524 329.888641,142.397949 319.027649,146.817383 
	C306.474854,151.925201 293.583344,156.200623 280.298096,160.606781 
	C276.203827,154.275177 273.870911,153.706070 262.991150,156.126724 
	C257.750214,157.292786 255.665115,160.718658 255.793457,165.827362 
	C253.854828,165.882233 251.916214,165.937088 249.442444,165.651398 
	C246.060852,159.341522 243.684952,158.212280 236.544312,159.434830 
	C230.373077,160.491394 228.636292,162.396408 227.883133,168.934799 
	C223.808502,169.271225 219.733887,169.607635 215.218155,169.921875 
z"/>
<path fill="#455A64" opacity="1.000000" stroke="none" 
	d="
M43.248177,437.251556 
	C49.019600,431.476746 54.473160,425.882416 60.106800,420.475739 
	C61.598526,419.044128 63.543415,417.502411 65.458191,417.220642 
	C68.952690,416.706482 73.084305,416.072876 75.024582,420.330414 
	C76.850433,424.336914 76.865242,428.540894 73.573822,431.854767 
	C69.277771,436.180115 64.568367,440.091888 60.196598,444.345825 
	C54.123524,450.255249 48.303120,456.426178 42.180412,462.282196 
	C36.383198,467.826874 28.029728,465.822906 26.960772,458.402924 
	C26.567739,455.674835 28.122330,451.952026 30.026537,449.756805 
	C33.904930,445.285675 38.624641,441.544312 43.248177,437.251556 
z"/>
<path fill="#455A64" opacity="1.000000" stroke="none" 
	d="
M84.166656,467.709717 
	C75.315277,476.946320 66.639709,485.874908 57.790298,494.627777 
	C54.613438,497.770020 47.706085,497.921295 44.936100,495.326263 
	C41.766445,492.356812 41.672840,486.059570 45.249485,482.361145 
	C53.453068,473.878143 61.849682,465.579742 70.258415,457.298279 
	C73.322517,454.280579 77.421356,453.961761 80.867142,455.731812 
	C85.555878,458.140320 85.994453,462.614105 84.166656,467.709717 
z"/>
<path fill="#455A64" opacity="1.000000" stroke="none" 
	d="
M136.996048,65.002403 
	C143.302597,65.620155 144.898758,67.153030 144.978546,72.604469 
	C145.061279,78.257431 145.074554,83.913956 144.973526,89.566338 
	C144.875748,95.036896 142.550507,97.060463 136.760254,96.997391 
	C131.380615,96.938789 129.117523,94.851997 129.025909,89.574303 
	C128.927811,83.921822 128.938980,78.265396 129.020996,72.612419 
	C129.100159,67.156502 130.691010,65.625183 136.996048,65.002403 
z"/>
<path fill="#455A64" opacity="1.000000" stroke="none" 
	d="
M128.999863,27.206129 
	C129.055115,18.766861 130.964615,16.685463 137.924911,17.006056 
	C142.658005,17.224062 144.866547,19.320429 144.964600,24.099997 
	C145.087234,30.077272 145.107910,36.061867 144.957825,42.037907 
	C144.830597,47.103012 142.401917,49.047977 136.801605,48.997379 
	C131.607513,48.950459 129.195435,46.932209 129.041855,42.127796 
	C128.888016,37.315563 129.002808,32.494740 128.999863,27.206129 
z"/>
<path fill="#455A64" opacity="1.000000" stroke="none" 
	d="
M97.019852,55.338684 
	C97.742157,50.500328 100.556709,48.919483 104.772209,48.981541 
	C110.425430,49.064758 116.082512,48.916988 121.734688,49.030296 
	C126.924103,49.134331 128.977448,51.469368 128.997375,56.921364 
	C129.017654,62.461864 127.027420,64.832573 121.903198,64.964973 
	C116.751076,65.098099 111.592911,65.006775 106.437416,64.997963 
	C98.770782,64.984856 97.092949,63.334591 97.019852,55.338684 
z"/>
<path fill="#455A64" opacity="1.000000" stroke="none" 
	d="
M151.540359,49.016403 
	C157.640350,49.004665 163.291290,48.960579 168.941330,49.012661 
	C174.909576,49.067677 177.030075,51.244141 176.997375,57.116161 
	C176.965164,62.899292 174.848526,64.942436 168.720520,64.990685 
	C163.568878,65.031250 158.414520,64.907608 153.265335,65.027313 
	C148.930527,65.128090 145.744675,63.826073 145.044006,59.082226 
	C144.189224,53.294960 145.769119,50.729313 151.540359,49.016403 
z"/>
<path fill="#455A64" opacity="1.000000" stroke="none" 
	d="
M58.661339,193.019928 
	C63.496136,193.741623 65.117783,196.552155 65.012970,200.766556 
	C64.934471,203.922943 65.111237,207.088379 64.960640,210.239594 
	C64.731285,215.038864 62.386032,216.973969 57.089344,216.997406 
	C51.767189,217.020966 49.325367,215.091187 49.042831,210.406494 
	C48.882996,207.756256 48.995880,205.089050 49.001507,202.429504 
	C49.017704,194.771011 50.666813,193.092941 58.661339,193.019928 
z"/>
<path fill="#455A64" opacity="1.000000" stroke="none" 
	d="
M64.071747,156.263855 
	C64.442986,161.750992 65.243767,166.909515 64.697868,171.921371 
	C64.178207,176.692322 59.974140,177.189636 55.881535,177.011124 
	C52.036793,176.843430 49.427467,175.068237 49.121037,171.189789 
	C48.794838,167.061157 48.581078,162.808517 49.252262,158.765060 
	C49.584953,156.760818 51.694386,154.097961 53.561588,153.506744 
	C57.104374,152.384964 61.166458,152.076035 64.071747,156.263855 
z"/>
<path fill="#455A64" opacity="1.000000" stroke="none" 
	d="
M78.849327,176.999832 
	C87.283722,177.058456 89.550888,179.295517 88.993378,186.461655 
	C88.672607,190.584763 86.500816,192.832962 82.377342,192.961151 
	C78.728592,193.074539 75.064178,193.146164 71.423485,192.939819 
	C66.841805,192.680130 65.013367,190.105286 64.980080,184.754913 
	C64.952316,180.291946 66.686432,177.389648 71.415779,177.047028 
	C73.728317,176.879486 76.062172,177.006271 78.849327,176.999832 
z"/>
<path fill="#455A64" opacity="1.000000" stroke="none" 
	d="
M35.150734,193.000153 
	C26.698984,192.941452 24.441803,190.718063 25.007473,183.538574 
	C25.332003,179.419601 27.514410,177.169403 31.634138,177.038696 
	C35.282730,176.922958 38.947418,176.852570 42.587925,177.060760 
	C47.165775,177.322571 48.989132,179.900711 49.019714,185.256622 
	C49.045181,189.717133 47.324619,192.623718 42.584442,192.953552 
	C40.270981,193.114548 37.937897,192.993546 35.150734,193.000153 
z"/>
<path fill="#F17670" opacity="1.000000" stroke="none" 
	d="
M322.452332,448.887146 
	C319.877899,443.992981 318.002228,439.025604 315.584625,434.337738 
	C311.903290,427.199371 311.906403,420.600616 316.432770,413.707794 
	C322.245636,404.855896 321.176208,397.075317 313.137817,390.909912 
	C310.432617,388.834991 306.455048,387.485138 303.035858,387.436646 
	C288.278809,387.227478 273.475708,387.070618 258.768677,388.066284 
	C252.698471,388.477264 246.827835,391.835724 240.514832,393.582794 
	C240.704681,389.680084 240.604523,385.826752 236.868698,384.296173 
	C234.452744,383.306396 230.809494,383.154327 228.575180,384.300873 
	C222.835205,387.246307 223.290878,393.991150 229.093384,398.921265 
	C226.334885,399.605957 223.576370,400.290619 220.433945,401.008057 
	C219.975525,396.062866 219.674774,391.072327 219.951126,386.113953 
	C220.045822,384.414886 221.181549,382.291138 222.525452,381.216614 
	C243.964386,364.075409 261.108887,343.366394 274.666199,319.190918 
	C279.092865,320.959686 283.258331,322.946594 287.696564,325.380981 
	C286.189056,331.942474 287.309235,334.427490 293.410980,337.900177 
	C299.550629,341.394440 302.168945,341.014465 306.945099,335.936279 
	C310.813049,337.608734 314.681000,339.281158 318.903381,340.937561 
	C321.564636,347.248901 323.442993,348.676086 330.310760,348.694885 
	C350.298035,348.749603 370.286285,348.615356 390.272614,348.763641 
	C398.149658,348.822083 405.070282,345.933472 411.334351,341.866638 
	C422.554352,334.582306 434.838470,337.361664 446.794128,337.365509 
	C448.891083,337.366211 451.468353,339.815094 452.986145,341.780273 
	C456.438599,346.250183 459.229218,351.225525 462.569122,355.790375 
	C464.447205,358.357300 464.237976,360.501801 462.803528,363.101257 
	C438.187073,407.711212 401.218201,435.772705 351.154419,445.925385 
	C341.915314,447.799011 332.332550,447.977966 322.452332,448.887146 
M394.699768,391.930817 
	C387.467346,386.228546 378.666382,387.179199 369.873474,394.612549 
	C365.613708,398.213684 364.668976,402.667267 367.374054,406.394653 
	C370.226288,410.324738 374.714630,410.484314 379.694550,407.337921 
	C381.627106,406.116913 384.273895,404.959595 386.362091,405.282349 
	C390.247467,405.882812 393.401672,405.367401 395.648865,402.181091 
	C397.904419,398.982910 397.676086,395.623260 394.699768,391.930817 
M366.716522,358.617889 
	C366.143585,358.290741 365.602417,357.878876 364.992584,357.650116 
	C360.878265,356.106720 357.410797,357.074402 355.093872,360.801056 
	C352.973785,364.211121 352.985504,367.840851 355.846802,370.861572 
	C358.711395,373.885742 362.345306,374.197296 365.797821,372.049927 
	C369.508026,369.742279 370.271301,366.084778 369.059998,362.045654 
	C368.742920,360.988434 367.905426,360.087250 366.716522,358.617889 
M299.949524,366.153809 
	C299.776031,360.378387 297.568756,357.460327 293.038544,357.017303 
	C288.791046,356.601929 285.010406,359.581329 284.172852,364.004089 
	C283.447449,367.834686 285.877106,371.860809 289.573181,372.952942 
	C294.197601,374.319427 297.478241,372.402161 299.949524,366.153809 
M420.073578,379.675049 
	C421.279572,380.174805 422.444855,380.926819 423.698853,381.129364 
	C428.414215,381.890869 432.264038,378.961548 432.922333,374.292023 
	C433.601959,369.471375 430.736725,365.549835 426.149139,365.021790 
	C421.727112,364.512756 417.408539,367.729614 417.260376,372.364899 
	C417.189178,374.594238 418.694611,376.873993 420.073578,379.675049 
z"/>
<path fill="#495B65" opacity="1.000000" stroke="none" 
	d="
M370.677124,177.323792 
	C364.797913,177.482758 361.696930,175.501083 361.006927,171.310944 
	C360.205017,166.441193 362.705505,163.441116 366.905548,161.564087 
	C374.762421,158.052780 386.196106,162.207703 390.021240,169.967957 
	C391.903564,173.786804 391.028503,177.188828 387.830017,179.739578 
	C384.579041,182.332214 380.995636,182.155487 377.821960,179.495529 
	C375.794708,177.796432 374.195923,175.405640 370.677124,177.323792 
z"/>
<path fill="#495B65" opacity="1.000000" stroke="none" 
	d="
M255.949158,166.164825 
	C255.665115,160.718658 257.750214,157.292786 262.991150,156.126724 
	C273.870911,153.706070 276.203827,154.275177 279.928253,160.683090 
	C280.278778,166.144165 278.048126,169.499390 272.903900,170.751984 
	C262.472321,173.292053 259.749115,172.615829 255.949158,166.164825 
z"/>
<path fill="#4A5C65" opacity="1.000000" stroke="none" 
	d="
M228.029633,169.258545 
	C228.636292,162.396408 230.373077,160.491394 236.544312,159.434830 
	C243.684952,158.212280 246.060852,159.341522 249.026276,165.652100 
	C248.953400,170.867569 246.735825,174.063446 241.731506,174.965790 
	C233.782761,176.399017 231.375717,175.446167 228.029633,169.258545 
z"/>
<path fill="#495B64" opacity="1.000000" stroke="none" 
	d="
M306.988098,335.577545 
	C302.168945,341.014465 299.550629,341.394440 293.410980,337.900177 
	C287.309235,334.427490 286.189056,331.942474 288.055786,325.454498 
	C293.041992,320.961731 295.514984,320.813080 301.042389,323.782318 
	C305.707977,326.288605 308.761780,329.451752 306.988098,335.577545 
z"/>
<path fill="#4B5B65" opacity="1.000000" stroke="none" 
	d="
M344.213501,179.888443 
	C349.166229,181.539307 350.612640,184.995529 349.791595,189.416092 
	C349.083618,193.227951 346.607025,195.573563 342.640381,195.962219 
	C338.071472,196.409882 334.148773,192.855911 334.013306,188.278290 
	C333.857452,183.011276 337.733032,179.676620 344.213501,179.888443 
z"/>
<path fill="#4A5B65" opacity="1.000000" stroke="none" 
	d="
M357.121216,245.180435 
	C357.520233,246.498642 357.917389,247.454102 357.946594,248.420670 
	C358.083130,252.941193 356.181580,256.193268 351.629272,257.287231 
	C347.737396,258.222443 344.738281,256.572845 342.944550,253.120071 
	C340.879181,249.144409 342.090759,245.589890 345.315948,242.878555 
	C348.752106,239.989838 352.359955,240.506897 355.710510,243.279144 
	C356.208466,243.691162 356.540863,244.303268 357.121216,245.180435 
z"/>
<path fill="#495B65" opacity="1.000000" stroke="none" 
	d="
M422.708984,269.325745 
	C426.856750,268.520905 430.652039,269.232697 431.829742,272.962189 
	C432.705719,275.736145 432.475647,279.750519 430.984528,282.098785 
	C429.792175,283.976562 425.617889,285.409058 423.389221,284.792023 
	C420.933136,284.112030 418.173950,281.191071 417.364197,278.663971 
	C416.075439,274.641815 418.517212,271.386078 422.708984,269.325745 
z"/>
<path fill="#FEFEFE" opacity="1.000000" stroke="none" 
	d="
M224.868622,357.871338 
	C208.702393,373.652344 189.666779,384.623566 170.293640,395.053467 
	C168.900101,395.803680 166.382065,395.463959 164.811310,394.726715 
	C153.211517,389.282593 143.274490,381.551758 134.594193,372.148407 
	C133.261200,370.704376 131.785843,369.089172 130.041061,368.391205 
	C126.484642,366.968536 123.066925,367.708466 120.687462,370.948303 
	C118.182114,374.359558 118.192726,378.226288 121.244347,380.959381 
	C130.014862,388.814545 139.113602,396.304382 148.128387,403.884216 
	C149.259277,404.835052 150.660233,405.464691 152.655548,406.682159 
	C147.131836,412.209167 141.798843,417.546356 136.464722,422.882446 
	C130.392532,428.956909 130.369141,428.993866 123.034065,424.487579 
	C107.806709,415.132629 95.875923,402.627197 87.183067,386.996338 
	C85.794785,384.499969 85.453514,382.678497 87.989410,380.603088 
	C106.134880,365.752747 117.666351,346.055847 129.074509,325.980927 
	C155.398880,279.658020 194.847107,249.870773 246.474396,236.673523 
	C258.009552,233.724838 269.986450,232.504150 282.828827,230.304855 
	C279.680084,281.069397 260.650177,323.064484 224.868622,357.871338 
M169.192368,323.965515 
	C169.710724,325.000793 170.075104,326.156830 170.775116,327.049713 
	C173.297073,330.266388 177.628723,331.023529 181.068420,328.973999 
	C184.485001,326.938202 186.002258,322.308167 184.508789,318.475372 
	C183.085800,314.823486 179.029663,312.750183 175.073349,313.984009 
	C170.660233,315.360291 168.889969,318.697296 169.192368,323.965515 
M200.613953,306.059235 
	C206.393387,305.267456 209.015900,302.617249 209.003143,297.581299 
	C208.992218,293.257935 206.364838,290.235016 202.217850,289.774445 
	C197.979980,289.303741 194.383987,291.813690 193.257401,296.028625 
	C192.082443,300.424469 194.436279,304.010803 200.613953,306.059235 
z"/>
<path fill="#E9ECEE" opacity="1.000000" stroke="none" 
	d="
M90.483948,315.418427 
	C99.639725,311.356934 108.879578,309.889313 119.378433,310.271088 
	C117.733368,313.173004 116.388306,315.551971 115.037170,317.927490 
	C113.475304,320.673523 111.676918,323.311951 110.381027,326.177887 
	C102.539986,343.518768 90.083214,357.222809 76.185310,369.786896 
	C75.092651,370.774689 73.159325,371.988190 72.071838,371.646790 
	C61.491611,368.325378 51.008488,364.694672 39.499821,360.815796 
	C53.677643,347.154602 67.093964,334.042816 80.772102,321.210114 
	C83.367447,318.775146 87.000580,317.446350 90.483948,315.418427 
z"/>
<path fill="#E9ECEE" opacity="1.000000" stroke="none" 
	d="
M203.636597,402.729797 
	C202.573853,418.703369 195.998718,431.532135 184.921249,442.332611 
	C174.431885,452.559570 164.180603,463.030640 153.364655,473.854675 
	C152.660767,472.309631 152.062256,471.248047 151.678665,470.113770 
	C148.747665,461.447296 145.970169,452.726776 142.890854,444.113892 
	C141.920944,441.401001 142.398758,439.784180 144.259018,437.520203 
	C160.102890,418.237579 181.271271,406.442688 203.670593,395.003876 
	C203.670593,397.565918 203.670593,399.928436 203.636597,402.729797 
z"/>
<path fill="#4A5B64" opacity="1.000000" stroke="none" 
	d="
M229.513855,398.958862 
	C223.290878,393.991150 222.835205,387.246307 228.575180,384.300873 
	C230.809494,383.154327 234.452744,383.306396 236.868698,384.296173 
	C240.604523,385.826752 240.704681,389.680084 240.167038,393.662506 
	C238.013397,398.251556 234.614685,399.940369 229.513855,398.958862 
z"/>
<path fill="#4A5B65" opacity="1.000000" stroke="none" 
	d="
M272.503906,423.835388 
	C272.606659,422.650848 272.643311,421.801910 272.901337,421.026703 
	C274.365845,416.626434 277.762848,414.323212 281.924225,415.034088 
	C286.114227,415.749847 288.298035,418.389221 288.362946,422.601471 
	C288.428894,426.882782 286.621948,430.122955 282.213623,431.006561 
	C277.737152,431.903839 274.443726,430.130096 272.880493,425.655945 
	C272.717560,425.189575 272.651184,424.689514 272.503906,423.835388 
z"/>
<path fill="#495B64" opacity="1.000000" stroke="none" 
	d="
M394.961731,392.212921 
	C397.676086,395.623260 397.904419,398.982910 395.648865,402.181091 
	C393.401672,405.367401 390.247467,405.882812 386.362091,405.282349 
	C384.273895,404.959595 381.627106,406.116913 379.694550,407.337921 
	C374.714630,410.484314 370.226288,410.324738 367.374054,406.394653 
	C364.668976,402.667267 365.613708,398.213684 369.873474,394.612549 
	C378.666382,387.179199 387.467346,386.228546 394.961731,392.212921 
z"/>
<path fill="#495B64" opacity="1.000000" stroke="none" 
	d="
M367.011719,358.866150 
	C367.905426,360.087250 368.742920,360.988434 369.059998,362.045654 
	C370.271301,366.084778 369.508026,369.742279 365.797821,372.049927 
	C362.345306,374.197296 358.711395,373.885742 355.846802,370.861572 
	C352.985504,367.840851 352.973785,364.211121 355.093872,360.801056 
	C357.410797,357.074402 360.878265,356.106720 364.992584,357.650116 
	C365.602417,357.878876 366.143585,358.290741 367.011719,358.866150 
z"/>
<path fill="#495B64" opacity="1.000000" stroke="none" 
	d="
M299.898926,366.550903 
	C297.478241,372.402161 294.197601,374.319427 289.573181,372.952942 
	C285.877106,371.860809 283.447449,367.834686 284.172852,364.004089 
	C285.010406,359.581329 288.791046,356.601929 293.038544,357.017303 
	C297.568756,357.460327 299.776031,360.378387 299.898926,366.550903 
z"/>
<path fill="#495B64" opacity="1.000000" stroke="none" 
	d="
M419.779816,379.402985 
	C418.694611,376.873993 417.189178,374.594238 417.260376,372.364899 
	C417.408539,367.729614 421.727112,364.512756 426.149139,365.021790 
	C430.736725,365.549835 433.601959,369.471375 432.922333,374.292023 
	C432.264038,378.961548 428.414215,381.890869 423.698853,381.129364 
	C422.444855,380.926819 421.279572,380.174805 419.779816,379.402985 
z"/>
<path fill="#4A5F68" opacity="1.000000" stroke="none" 
	d="
M169.129288,323.577209 
	C168.889969,318.697296 170.660233,315.360291 175.073349,313.984009 
	C179.029663,312.750183 183.085800,314.823486 184.508789,318.475372 
	C186.002258,322.308167 184.485001,326.938202 181.068420,328.973999 
	C177.628723,331.023529 173.297073,330.266388 170.775116,327.049713 
	C170.075104,326.156830 169.710724,325.000793 169.129288,323.577209 
z"/>
<path fill="#4A5F68" opacity="1.000000" stroke="none" 
	d="
M200.212402,306.036438 
	C194.436279,304.010803 192.082443,300.424469 193.257401,296.028625 
	C194.383987,291.813690 197.979980,289.303741 202.217850,289.774445 
	C206.364838,290.235016 208.992218,293.257935 209.003143,297.581299 
	C209.015900,302.617249 206.393387,305.267456 200.212402,306.036438 
z"/>
</svg>